  0
SECTION
  2
HEADER
  9
$ACADVER
  1
AC1015
  9
$ACADMAINTVER
 70
     6
  9
$DWGCODEPAGE
  3
ANSI_1252
  9
$INSBASE
 10
0.0
 20
0.0
 30
0.0
  9
$EXTMIN
 10
-241.5549236841
 20
-247.4094895876
 30
0.0
  9
$EXTMAX
 10
318.0711928263
 20
128.6979693924
 30
0.0
  9
$LIMMIN
 10
0.0
 20
0.0
  9
$LIMMAX
 10
420.0
 20
297.0
  9
$ORTHOMODE
 70
     0
  9
$REGENMODE
 70
     1
  9
$FILLMODE
 70
     1
  9
$QTEXTMODE
 70
     0
  9
$MIRRTEXT
 70
     1
  9
$LTSCALE
 40
1.0
  9
$ATTMODE
 70
     1
  9
$TEXTSIZE
 40
3.175
  9
$TRACEWID
 40
1.0
  9
$TEXTSTYLE
  7
Standard
  9
$CLAYER
  8
0
  9
$CELTYPE
  6
ByLayer
  9
$CECOLOR
 62
   256
  9
$CELTSCALE
 40
1.0
  9
$DISPSILH
 70
     0
  9
$DIMSCALE
 40
1.0
  9
$DIMASZ
 40
3.302
  9
$DIMEXO
 40
1.27
  9
$DIMDLI
 40
3.75
  9
$DIMRND
 40
0.0
  9
$DIMDLE
 40
0.0
  9
$DIMEXE
 40
3.175
  9
$DIMTP
 40
0.0
  9
$DIMTM
 40
0.0
  9
$DIMTXT
 40
3.175
  9
$DIMCEN
 40
2.5
  9
$DIMTSZ
 40
0.0
  9
$DIMTOL
 70
     0
  9
$DIMLIM
 70
     0
  9
$DIMTIH
 70
     1
  9
$DIMTOH
 70
     1
  9
$DIMSE1
 70
     0
  9
$DIMSE2
 70
     0
  9
$DIMTAD
 70
     0
  9
$DIMZIN
 70
     1
  9
$DIMBLK
  1

  9
$DIMASO
 70
     1
  9
$DIMSHO
 70
     1
  9
$DIMPOST
  1

  9
$DIMAPOST
  1

  9
$DIMALT
 70
     0
  9
$DIMALTD
 70
     3
  9
$DIMALTF
 40
0.0393700787
  9
$DIMLFAC
 40
1.0
  9
$DIMTOFL
 70
     1
  9
$DIMTVP
 40
0.0
  9
$DIMTIX
 70
     0
  9
$DIMSOXD
 70
     0
  9
$DIMSAH
 70
     0
  9
$DIMBLK1
  1

  9
$DIMBLK2
  1

  9
$DIMSTYLE
  2
ISO-25
  9
$DIMCLRD
 70
     0
  9
$DIMCLRE
 70
     0
  9
$DIMCLRT
 70
     0
  9
$DIMTFAC
 40
1.0
  9
$DIMGAP
 40
1.524
  9
$DIMJUST
 70
     0
  9
$DIMSD1
 70
     0
  9
$DIMSD2
 70
     0
  9
$DIMTOLJ
 70
     0
  9
$DIMTZIN
 70
     1
  9
$DIMALTZ
 70
     0
  9
$DIMALTTZ
 70
     0
  9
$DIMUPT
 70
     0
  9
$DIMDEC
 70
     2
  9
$DIMTDEC
 70
     2
  9
$DIMALTU
 70
     2
  9
$DIMALTTD
 70
     3
  9
$DIMTXSTY
  7
Standard
  9
$DIMAUNIT
 70
     0
  9
$DIMADEC
 70
     2
  9
$DIMALTRND
 40
0.0
  9
$DIMAZIN
 70
     0
  9
$DIMDSEP
 70
    44
  9
$DIMATFIT
 70
     3
  9
$DIMFRAC
 70
     0
  9
$DIMLDRBLK
  1

  9
$DIMLUNIT
 70
     2
  9
$DIMLWD
 70
    -2
  9
$DIMLWE
 70
    -2
  9
$DIMTMOVE
 70
     0
  9
$LUNITS
 70
     2
  9
$LUPREC
 70
     2
  9
$SKETCHINC
 40
1.0
  9
$FILLETRAD
 40
10.0
  9
$AUNITS
 70
     0
  9
$AUPREC
 70
     2
  9
$MENU
  1
.
  9
$ELEVATION
 40
0.0
  9
$PELEVATION
 40
0.0
  9
$THICKNESS
 40
0.0
  9
$LIMCHECK
 70
     0
  9
$CHAMFERA
 40
0.0
  9
$CHAMFERB
 40
0.0
  9
$CHAMFERC
 40
0.0
  9
$CHAMFERD
 40
0.0
  9
$SKPOLY
 70
     0
  9
$TDCREATE
 40
2458619.693916343
  9
$TDUCREATE
 40
2458619.985583009
  9
$TDUPDATE
 40
2458619.693991204
  9
$TDUUPDATE
 40
2458619.98565787
  9
$TDINDWG
 40
0.0000000116
  9
$TDUSRTIMER
 40
0.0000000116
  9
$USRTIMER
 70
     1
  9
$ANGBASE
 50
0.0
  9
$ANGDIR
 70
     0
  9
$PDMODE
 70
     0
  9
$PDSIZE
 40
-1.0
  9
$PLINEWID
 40
0.0
  9
$SPLFRAME
 70
     0
  9
$SPLINETYPE
 70
     6
  9
$SPLINESEGS
 70
     8
  9
$HANDSEED
  5
261
  9
$SURFTAB1
 70
     6
  9
$SURFTAB2
 70
     6
  9
$SURFTYPE
 70
     6
  9
$SURFU
 70
     6
  9
$SURFV
 70
     6
  9
$UCSBASE
  2

  9
$UCSNAME
  2

  9
$UCSORG
 10
0.0
 20
0.0
 30
0.0
  9
$UCSXDIR
 10
1.0
 20
0.0
 30
0.0
  9
$UCSYDIR
 10
0.0
 20
1.0
 30
0.0
  9
$UCSORTHOREF
  2

  9
$UCSORTHOVIEW
 70
     0
  9
$UCSORGTOP
 10
0.0
 20
0.0
 30
0.0
  9
$UCSORGBOTTOM
 10
0.0
 20
0.0
 30
0.0
  9
$UCSORGLEFT
 10
0.0
 20
0.0
 30
0.0
  9
$UCSORGRIGHT
 10
0.0
 20
0.0
 30
0.0
  9
$UCSORGFRONT
 10
0.0
 20
0.0
 30
0.0
  9
$UCSORGBACK
 10
0.0
 20
0.0
 30
0.0
  9
$PUCSBASE
  2

  9
$PUCSNAME
  2

  9
$PUCSORG
 10
0.0
 20
0.0
 30
0.0
  9
$PUCSXDIR
 10
1.0
 20
0.0
 30
0.0
  9
$PUCSYDIR
 10
0.0
 20
1.0
 30
0.0
  9
$PUCSORTHOREF
  2

  9
$PUCSORTHOVIEW
 70
     0
  9
$PUCSORGTOP
 10
0.0
 20
0.0
 30
0.0
  9
$PUCSORGBOTTOM
 10
0.0
 20
0.0
 30
0.0
  9
$PUCSORGLEFT
 10
0.0
 20
0.0
 30
0.0
  9
$PUCSORGRIGHT
 10
0.0
 20
0.0
 30
0.0
  9
$PUCSORGFRONT
 10
0.0
 20
0.0
 30
0.0
  9
$PUCSORGBACK
 10
0.0
 20
0.0
 30
0.0
  9
$USERI1
 70
     0
  9
$USERI2
 70
     0
  9
$USERI3
 70
     0
  9
$USERI4
 70
     0
  9
$USERI5
 70
     0
  9
$USERR1
 40
0.0
  9
$USERR2
 40
0.0
  9
$USERR3
 40
0.0
  9
$USERR4
 40
0.0
  9
$USERR5
 40
0.0
  9
$WORLDVIEW
 70
     1
  9
$SHADEDGE
 70
     3
  9
$SHADEDIF
 70
    70
  9
$TILEMODE
 70
     1
  9
$MAXACTVP
 70
    64
  9
$PINSBASE
 10
0.0
 20
0.0
 30
0.0
  9
$PLIMCHECK
 70
     0
  9
$PEXTMIN
 10
-241.5549236841
 20
-247.4094895876
 30
0.0
  9
$PEXTMAX
 10
318.0711928263
 20
128.6979693924
 30
0.0
  9
$PLIMMIN
 10
-285.1055942297
 20
-263.7409910422
  9
$PLIMMAX
 10
361.6218633718
 20
193.5410496861
  9
$UNITMODE
 70
     0
  9
$VISRETAIN
 70
     1
  9
$PLINEGEN
 70
     0
  9
$PSLTSCALE
 70
     1
  9
$TREEDEPTH
 70
  3020
  9
$CMLSTYLE
  2
Standard
  9
$CMLJUST
 70
     0
  9
$CMLSCALE
 40
20.0
  9
$PROXYGRAPHICS
 70
     1
  9
$MEASUREMENT
 70
     1
  9
$CELWEIGHT
370
    -1
  9
$ENDCAPS
280
     0
  9
$JOINSTYLE
280
     0
  9
$LWDISPLAY
290
     1
  9
$INSUNITS
 70
     4
  9
$HYPERLINKBASE
  1

  9
$STYLESHEET
  1

  9
$XEDIT
290
     1
  9
$CEPSNTYPE
380
     0
  9
$PSTYLEMODE
290
     1
  9
$FINGERPRINTGUID
  2
{84217BFF-5EBB-4BAF-A87F-7CE769821469}
  9
$VERSIONGUID
  2
{FAEB1C32-E019-11D5-929B-00C0DF256EC4}
  9
$EXTNAMES
290
     1
  9
$PSVPSCALE
 40
0.0
  9
$OLESTARTUP
290
     0
  0
ENDSEC
  0
SECTION
  2
CLASSES
  0
CLASS
  1
ACDBDICTIONARYWDFLT
  2
AcDbDictionaryWithDefault
  3
ObjectDBX Classes
 90
        0
280
     0
281
     0
  0
CLASS
  1
VISUALSTYLE
  2
AcDbVisualStyle
  3
ObjectDBX Classes
 90
     4095
280
     0
281
     0
  0
CLASS
  1
MATERIAL
  2
AcDbMaterial
  3
ObjectDBX Classes
 90
     1153
280
     0
281
     0
  0
CLASS
  1
SCALE
  2
AcDbScale
  3
ObjectDBX Classes
 90
     1153
280
     0
281
     0
  0
CLASS
  1
TABLESTYLE
  2
AcDbTableStyle
  3
ObjectDBX Classes
 90
     4095
280
     0
281
     0
  0
CLASS
  1
MLEADERSTYLE
  2
AcDbMLeaderStyle
  3
ACDB_MLEADERSTYLE_CLASS
 90
     4095
280
     0
281
     0
  0
CLASS
  1
SUN
  2
AcDbSun
  3
SCENEOE
 90
     1153
280
     0
281
     0
  0
CLASS
  1
ACDBPLACEHOLDER
  2
AcDbPlaceHolder
  3
ObjectDBX Classes
 90
        0
280
     0
281
     0
  0
CLASS
  1
LAYOUT
  2
AcDbLayout
  3
ObjectDBX Classes
 90
        0
280
     0
281
     0
  0
ENDSEC
  0
SECTION
  2
TABLES
  0
TABLE
  2
VPORT
  5
8
330
0
100
AcDbSymbolTable
 70
     1
  0
VPORT
  5
29
330
8
100
AcDbSymbolTableRecord
100
AcDbViewportTableRecord
  2
*Active
 70
     0
 10
0.0
 20
0.0
 11
1.0
 21
1.0
 12
38.2581345711
 22
-59.3557600976
 13
0.0
 23
0.0
 14
10.0
 24
10.0
 15
10.0
 25
10.0
 16
0.0
 26
0.0
 36
1.0
 17
0.0
 27
0.0
 37
0.0
 40
383.6296081596
 41
1.4879420845
 42
50.0
 43
0.0
 44
0.0
 50
0.0
 51
0.0
 71
     0
 72
   100
 73
     1
 74
     3
 75
     0
 76
     0
 77
     0
 78
     0
281
     0
 65
     1
110
0.0
120
0.0
130
0.0
111
1.0
121
0.0
131
0.0
112
0.0
122
1.0
132
0.0
 79
     0
146
0.0
  0
ENDTAB
  0
TABLE
  2
LTYPE
  5
5
330
0
100
AcDbSymbolTable
 70
     6
  0
LTYPE
  5
14
330
5
100
AcDbSymbolTableRecord
100
AcDbLinetypeTableRecord
  2
ByBlock
 70
     0
  3

 72
    65
 73
     0
 40
0.0
  0
LTYPE
  5
15
330
5
100
AcDbSymbolTableRecord
100
AcDbLinetypeTableRecord
  2
ByLayer
 70
     0
  3

 72
    65
 73
     0
 40
0.0
  0
LTYPE
  5
16
330
5
100
AcDbSymbolTableRecord
100
AcDbLinetypeTableRecord
  2
Continuous
 70
     0
  3
Solid line
 72
    65
 73
     0
 40
0.0
  0
LTYPE
  5
6E
330
5
100
AcDbSymbolTableRecord
100
AcDbLinetypeTableRecord
  2
HIDDEN
 70
     0
  3
Hidden __ __ __ __ __ __ __ __ __ __ __ __ __ __
 72
    65
 73
     2
 40
1.905
 49
1.27
 74
     0
 49
-0.635
 74
     0
  0
LTYPE
  5
6F
330
5
100
AcDbSymbolTableRecord
100
AcDbLinetypeTableRecord
  2
PHANTOM
 70
     0
  3
Phantom ______  __  __  ______  __  __  ______
 72
    65
 73
     6
 40
12.7
 49
6.35
 74
     0
 49
-1.27
 74
     0
 49
1.27
 74
     0
 49
-1.27
 74
     0
 49
1.27
 74
     0
 49
-1.27
 74
     0
  0
LTYPE
  5
70
330
5
100
AcDbSymbolTableRecord
100
AcDbLinetypeTableRecord
  2
CENTER
 70
     0
  3
Center ____ _ ____ _ ____ _ ____ _ ____ _ ____
 72
    65
 73
     4
 40
10.16
 49
6.35
 74
     0
 49
-1.27
 74
     0
 49
1.27
 74
     0
 49
-1.27
 74
     0
  0
LTYPE
  5
71
330
5
100
AcDbSymbolTableRecord
100
AcDbLinetypeTableRecord
  2
CENTERX2
 70
     0
  3
Center (2x) ________  __  ________  __  _____
 72
    65
 73
     4
 40
20.32
 49
12.7
 74
     0
 49
-2.54
 74
     0
 49
2.54
 74
     0
 49
-2.54
 74
     0
  0
LTYPE
  5
72
330
5
100
AcDbSymbolTableRecord
100
AcDbLinetypeTableRecord
  2
DOT2
 70
     0
  3
Dot (.5x) ........................................
 72
    65
 73
     2
 40
0.635
 49
0.0
 74
     0
 49
-0.635
 74
     0
  0
ENDTAB
  0
TABLE
  2
LAYER
  5
2
330
0
100
AcDbSymbolTable
 70
     1
  0
LAYER
  5
10
330
2
100
AcDbSymbolTableRecord
100
AcDbLayerTableRecord
  2
0
 70
     0
 62
     7
  6
Continuous
370
    -3
390
F
  0
ENDTAB
  0
TABLE
  2
STYLE
  5
3
330
0
100
AcDbSymbolTable
 70
     2
  0
STYLE
  5
11
330
3
100
AcDbSymbolTableRecord
100
AcDbTextStyleTableRecord
  2
Standard
 70
     0
 40
0.0
 41
1.0
 50
0.0
 71
     0
 42
3.175
  3
txt
  4

  0
STYLE
  5
25A
330
3
100
AcDbSymbolTableRecord
100
AcDbTextStyleTableRecord
  2
SLDTEXTSTYLE0
 70
     0
 40
0.0
 41
0.7
 50
0.0
 71
     0
 42
3.175
  3
TXT
  4

  0
ENDTAB
  0
TABLE
  2
VIEW
  5
6
330
0
100
AcDbSymbolTable
 70
     0
  0
ENDTAB
  0
TABLE
  2
UCS
  5
7
330
0
100
AcDbSymbolTable
 70
     0
  0
ENDTAB
  0
TABLE
  2
APPID
  5
9
330
0
100
AcDbSymbolTable
 70
     1
  0
APPID
  5
12
330
9
100
AcDbSymbolTableRecord
100
AcDbRegAppTableRecord
  2
ACAD
 70
     0
  0
ENDTAB
  0
TABLE
  2
DIMSTYLE
  5
A
330
0
100
AcDbSymbolTable
 70
     1
100
AcDbDimStyleTable
  0
DIMSTYLE
105
27
330
A
100
AcDbSymbolTableRecord
100
AcDbDimStyleTableRecord
  2
ISO-25
 70
     0
 41
2.5
 42
0.625
 43
3.75
 44
1.25
 73
     0
 74
     0
 77
     1
 78
     8
140
2.5
141
2.5
143
0.0393700787
147
0.625
171
     3
172
     1
178
     0
271
     2
272
     2
274
     3
278
    44
283
     0
284
     8
340
11
  0
ENDTAB
  0
TABLE
  2
BLOCK_RECORD
  5
1
330
0
100
AcDbSymbolTable
 70
     1
  0
BLOCK_RECORD
  5
1F
330
1
100
AcDbSymbolTableRecord
100
AcDbBlockTableRecord
  2
*Model_Space
340
22
  0
BLOCK_RECORD
  5
1B
330
1
100
AcDbSymbolTableRecord
100
AcDbBlockTableRecord
  2
*Paper_Space
340
1E
  0
BLOCK_RECORD
  5
23
330
1
100
AcDbSymbolTableRecord
100
AcDbBlockTableRecord
  2
*Paper_Space0
340
26
  0
ENDTAB
  0
ENDSEC
  0
SECTION
  2
BLOCKS
  0
BLOCK
  5
20
330
1F
100
AcDbEntity
  8
0
100
AcDbBlockBegin
  2
*Model_Space
 70
     0
 10
0.0
 20
0.0
 30
0.0
  3
*Model_Space
  1

  0
ENDBLK
  5
21
330
1F
100
AcDbEntity
  8
0
100
AcDbBlockEnd
  0
BLOCK
  5
1C
330
1B
100
AcDbEntity
 67
     1
  8
0
100
AcDbBlockBegin
  2
*Paper_Space
 70
     0
 10
0.0
 20
0.0
 30
0.0
  3
*Paper_Space
  1

  0
ENDBLK
  5
1D
330
1B
100
AcDbEntity
 67
     1
  8
0
100
AcDbBlockEnd
  0
BLOCK
  5
24
330
23
100
AcDbEntity
  8
0
100
AcDbBlockBegin
  2
*Paper_Space0
 70
     0
 10
0.0
 20
0.0
 30
0.0
  3
*Paper_Space0
  1

  0
CIRCLE
  5
205
330
23
100
AcDbEntity
  8
0
  6
Continuous
 62
     7
370
    25
100
AcDbCircle
 10
118.2054430165
 20
-78.5316758796
 30
0.0
 40
11.43000000000001
  0
LINE
  5
206
330
23
100
AcDbEntity
  8
0
  6
Continuous
 62
     7
370
    25
100
AcDbLine
 10
-149.4799236841
 20
56.8164570391
 30
0.0
 11
-149.4799236841
 21
59.9914570391
 31
0.0
  0
LINE
  5
207
330
23
100
AcDbEntity
  8
0
  6
Continuous
 62
     7
370
    25
100
AcDbLine
 10
-238.3799236841
 20
56.8164570391
 30
0.0
 11
-238.3799236841
 21
148.8914570391
 31
0.0
  0
LINE
  5
208
330
23
100
AcDbEntity
  8
0
  6
Continuous
 62
     7
370
    25
100
AcDbLine
 10
-57.4049236841
 20
148.8914570391
 30
0.0
 11
-60.5799236841
 21
148.8914570391
 31
0.0
  0
LINE
  5
209
330
23
100
AcDbEntity
  8
0
  6
Continuous
 62
     7
370
    25
100
AcDbLine
 10
-241.5549236841
 20
148.8914570391
 30
0.0
 11
-238.3799236841
 21
148.8914570391
 31
0.0
  0
LINE
  5
20A
330
23
100
AcDbEntity
  8
0
  6
Continuous
 62
     7
370
    25
100
AcDbLine
 10
-238.3799236841
 20
56.8164570391
 30
0.0
 11
-149.4799236841
 21
56.8164570391
 31
0.0
  0
LINE
  5
20B
330
23
100
AcDbEntity
  8
0
  6
Continuous
 62
     7
370
    25
100
AcDbLine
 10
-149.4799236841
 20
59.9914570391
 30
0.0
 11
-57.4049236841
 21
59.9914570391
 31
0.0
  0
LINE
  5
20C
330
23
100
AcDbEntity
  8
0
  6
Continuous
 62
     7
370
    25
100
AcDbLine
 10
-60.5799236841
 20
240.9664570391
 30
0.0
 11
-149.4799236841
 21
240.9664570391
 31
0.0
  0
LINE
  5
20D
330
23
100
AcDbEntity
  8
0
  6
Continuous
 62
     7
370
    25
100
AcDbLine
 10
-149.4799236841
 20
240.9664570391
 30
0.0
 11
-149.4799236841
 21
237.7914570391
 31
0.0
  0
LINE
  5
20E
330
23
100
AcDbEntity
  8
0
  6
Continuous
 62
     7
370
    25
100
AcDbLine
 10
-57.4049236841
 20
59.9914570391
 30
0.0
 11
-57.4049236841
 21
148.8914570391
 31
0.0
  0
LINE
  5
20F
330
23
100
AcDbEntity
  8
0
  6
Continuous
 62
     7
370
    25
100
AcDbLine
 10
-241.5549236841
 20
237.7914570391
 30
0.0
 11
-241.5549236841
 21
148.8914570391
 31
0.0
  0
LINE
  5
210
330
23
100
AcDbEntity
  8
0
  6
Continuous
 62
     7
370
    25
100
AcDbLine
 10
-60.5799236841
 20
148.8914570391
 30
0.0
 11
-60.5799236841
 21
240.9664570391
 31
0.0
  0
LINE
  5
211
330
23
100
AcDbEntity
  8
0
  6
Continuous
 62
     7
370
    25
100
AcDbLine
 10
-149.4799236841
 20
237.7914570391
 30
0.0
 11
-241.5549236841
 21
237.7914570391
 31
0.0
  0
LINE
  5
212
330
23
100
AcDbEntity
  8
0
  6
Continuous
 62
     7
370
    25
100
AcDbLine
 10
133.6423791135
 20
244.2344895876
 30
0.0
 11
133.6423791135
 21
155.3344895876
 31
0.0
  0
LINE
  5
213
330
23
100
AcDbEntity
  8
0
  6
Continuous
 62
     7
370
    25
100
AcDbLine
 10
225.7173791135
 20
247.4094895876
 30
0.0
 11
225.7173791135
 21
244.2344895876
 31
0.0
  0
LINE
  5
214
330
23
100
AcDbEntity
  8
0
  6
Continuous
 62
     7
370
    25
100
AcDbLine
 10
314.6173791135
 20
155.3344895876
 30
0.0
 11
314.6173791135
 21
247.4094895876
 31
0.0
  0
LINE
  5
215
330
23
100
AcDbEntity
  8
0
  6
Continuous
 62
     7
370
    25
100
AcDbLine
 10
317.7923791135
 20
155.3344895876
 30
0.0
 11
314.6173791135
 21
155.3344895876
 31
0.0
  0
LINE
  5
216
330
23
100
AcDbEntity
  8
0
  6
Continuous
 62
     7
370
    25
100
AcDbLine
 10
317.7923791135
 20
66.4344895876
 30
0.0
 11
317.7923791135
 21
155.3344895876
 31
0.0
  0
LINE
  5
217
330
23
100
AcDbEntity
  8
0
  6
Continuous
 62
     7
370
    25
100
AcDbLine
 10
225.7173791135
 20
66.4344895876
 30
0.0
 11
317.7923791135
 21
66.4344895876
 31
0.0
  0
LINE
  5
218
330
23
100
AcDbEntity
  8
0
  6
Continuous
 62
     7
370
    25
100
AcDbLine
 10
225.7173791135
 20
63.2594895876
 30
0.0
 11
225.7173791135
 21
66.4344895876
 31
0.0
  0
LINE
  5
219
330
23
100
AcDbEntity
  8
0
  6
Continuous
 62
     7
370
    25
100
AcDbLine
 10
136.8173791135
 20
63.2594895876
 30
0.0
 11
225.7173791135
 21
63.2594895876
 31
0.0
  0
LINE
  5
21A
330
23
100
AcDbEntity
  8
0
  6
Continuous
 62
     7
370
    25
100
AcDbLine
 10
136.8173791135
 20
63.2594895876
 30
0.0
 11
136.8173791135
 21
155.3344895876
 31
0.0
  0
LINE
  5
21B
330
23
100
AcDbEntity
  8
0
  6
Continuous
 62
     7
370
    25
100
AcDbLine
 10
133.6423791135
 20
155.3344895876
 30
0.0
 11
136.8173791135
 21
155.3344895876
 31
0.0
  0
LINE
  5
21C
330
23
100
AcDbEntity
  8
0
  6
Continuous
 62
     7
370
    25
100
AcDbLine
 10
314.6173791135
 20
247.4094895876
 30
0.0
 11
225.7173791135
 21
247.4094895876
 31
0.0
  0
LINE
  5
21D
330
23
100
AcDbEntity
  8
0
  6
Continuous
 62
     7
370
    25
100
AcDbLine
 10
225.7173791135
 20
244.2344895876
 30
0.0
 11
133.6423791135
 21
244.2344895876
 31
0.0
  0
LINE
  5
21E
330
23
100
AcDbEntity
  8
0
  6
Continuous
 62
     7
370
    25
100
AcDbLine
 10
-45.2762850525
 20
87.8879954097
 30
0.0
 11
-1.0294850525
 21
87.8879954097
 31
0.0
  0
LINE
  5
21F
330
23
100
AcDbEntity
  8
0
  6
Continuous
 62
     7
370
    25
100
AcDbLine
 10
-1.0294850525
 20
87.8879954097
 30
0.0
 11
-1.0294850525
 21
126.8769954097
 31
0.0
  0
LINE
  5
220
330
23
100
AcDbEntity
  8
0
  6
Continuous
 62
     7
370
    25
100
AcDbLine
 10
-45.2762850525
 20
126.8769954097
 30
0.0
 11
-1.0294850525
 21
126.8769954097
 31
0.0
  0
LINE
  5
221
330
23
100
AcDbEntity
  8
0
  6
Continuous
 62
     7
370
    25
100
AcDbLine
 10
-45.2762850525
 20
126.8769954097
 30
0.0
 11
-45.2762850525
 21
87.8879954097
 31
0.0
  0
LINE
  5
222
330
23
100
AcDbEntity
  8
0
  6
Continuous
 62
     7
370
    25
100
AcDbLine
 10
-55.2584850525
 20
240.7324954097
 30
0.0
 11
-55.2584850525
 21
151.8324954097
 31
0.0
  0
LINE
  5
223
330
23
100
AcDbEntity
  8
0
  6
Continuous
 62
     7
370
    25
100
AcDbLine
 10
36.8165149475
 20
240.7324954097
 30
0.0
 11
-55.2584850525
 21
240.7324954097
 31
0.0
  0
LINE
  5
224
330
23
100
AcDbEntity
  8
0
  6
Continuous
 62
     7
370
    25
100
AcDbLine
 10
36.8165149475
 20
243.9074954097
 30
0.0
 11
36.8165149475
 21
240.7324954097
 31
0.0
  0
LINE
  5
225
330
23
100
AcDbEntity
  8
0
  6
Continuous
 62
     7
370
    25
100
AcDbLine
 10
128.8915149475
 20
62.9324954097
 30
0.0
 11
128.8915149475
 21
151.8324954097
 31
0.0
  0
LINE
  5
226
330
23
100
AcDbEntity
  8
0
  6
Continuous
 62
     7
370
    25
100
AcDbLine
 10
36.8165149475
 20
62.9324954097
 30
0.0
 11
128.8915149475
 21
62.9324954097
 31
0.0
  0
LINE
  5
227
330
23
100
AcDbEntity
  8
0
  6
Continuous
 62
     7
370
    25
100
AcDbLine
 10
36.8165149475
 20
59.7574954097
 30
0.0
 11
36.8165149475
 21
62.9324954097
 31
0.0
  0
LINE
  5
228
330
23
100
AcDbEntity
  8
0
  6
Continuous
 62
     7
370
    25
100
AcDbLine
 10
-52.0834850525
 20
59.7574954097
 30
0.0
 11
36.8165149475
 21
59.7574954097
 31
0.0
  0
LINE
  5
229
330
23
100
AcDbEntity
  8
0
  6
Continuous
 62
     7
370
    25
100
AcDbLine
 10
-52.0834850525
 20
59.7574954097
 30
0.0
 11
-52.0834850525
 21
151.8324954097
 31
0.0
  0
LINE
  5
22A
330
23
100
AcDbEntity
  8
0
  6
Continuous
 62
     7
370
    25
100
AcDbLine
 10
-55.2584850525
 20
151.8324954097
 30
0.0
 11
-52.0834850525
 21
151.8324954097
 31
0.0
  0
LINE
  5
22B
330
23
100
AcDbEntity
  8
0
  6
Continuous
 62
     7
370
    25
100
AcDbLine
 10
128.8915149475
 20
151.8324954097
 30
0.0
 11
125.7165149475
 21
151.8324954097
 31
0.0
  0
LINE
  5
22C
330
23
100
AcDbEntity
  8
0
  6
Continuous
 62
     7
370
    25
100
AcDbLine
 10
125.7165149475
 20
151.8324954097
 30
0.0
 11
125.7165149475
 21
243.9074954097
 31
0.0
  0
LINE
  5
22D
330
23
100
AcDbEntity
  8
0
  6
Continuous
 62
     7
370
    25
100
AcDbLine
 10
125.7165149475
 20
243.9074954097
 30
0.0
 11
36.8165149475
 21
243.9074954097
 31
0.0
  0
LINE
  5
22E
330
23
100
AcDbEntity
  8
0
  6
Continuous
 62
     7
370
    25
100
AcDbLine
 10
225.9961928263
 20
-120.4403823669
 30
0.0
 11
318.0711928263
 21
-120.4403823669
 31
0.0
  0
LINE
  5
22F
330
23
100
AcDbEntity
  8
0
  6
Continuous
 62
     7
370
    25
100
AcDbLine
 10
318.0711928263
 20
-31.5403823669
 30
0.0
 11
314.8961928263
 21
-31.5403823669
 31
0.0
  0
LINE
  5
230
330
23
100
AcDbEntity
  8
0
  6
Continuous
 62
     7
370
    25
100
AcDbLine
 10
318.0711928263
 20
-120.4403823669
 30
0.0
 11
318.0711928263
 21
-31.5403823669
 31
0.0
  0
LINE
  5
231
330
23
100
AcDbEntity
  8
0
  6
Continuous
 62
     7
370
    25
100
AcDbLine
 10
289.4961928263
 20
31.9596176331
 30
0.0
 11
289.4961928263
 21
-95.0403823669
 31
0.0
  0
LINE
  5
232
330
23
100
AcDbEntity
  8
0
  6
Continuous
 62
     7
370
    25
100
AcDbLine
 10
137.0961928263
 20
-123.6153823669
 30
0.0
 11
137.0961928263
 21
-31.5403823669
 31
0.0
  0
LINE
  5
233
330
23
100
AcDbEntity
  8
0
  6
Continuous
 62
     7
370
    25
100
AcDbLine
 10
137.0961928263
 20
-123.6153823669
 30
0.0
 11
225.9961928263
 21
-123.6153823669
 31
0.0
  0
LINE
  5
234
330
23
100
AcDbEntity
  8
0
  6
Continuous
 62
     7
370
    25
100
AcDbLine
 10
225.9961928263
 20
-123.6153823669
 30
0.0
 11
225.9961928263
 21
-120.4403823669
 31
0.0
  0
LINE
  5
235
330
23
100
AcDbEntity
  8
0
  6
Continuous
 62
     7
370
    25
100
AcDbLine
 10
289.4961928263
 20
31.9596176331
 30
0.0
 11
162.4961928263
 21
31.9596176331
 31
0.0
  0
LINE
  5
236
330
23
100
AcDbEntity
  8
0
  6
Continuous
 62
     7
370
    25
100
AcDbLine
 10
314.8961928263
 20
-31.5403823669
 30
0.0
 11
314.8961928263
 21
60.5346176331
 31
0.0
  0
LINE
  5
237
330
23
100
AcDbEntity
  8
0
  6
Continuous
 62
     7
370
    25
100
AcDbLine
 10
314.8961928263
 20
60.5346176331
 30
0.0
 11
225.9961928263
 21
60.5346176331
 31
0.0
  0
LINE
  5
238
330
23
100
AcDbEntity
  8
0
  6
Continuous
 62
     7
370
    25
100
AcDbLine
 10
225.9961928263
 20
60.5346176331
 30
0.0
 11
225.9961928263
 21
57.3596176331
 31
0.0
  0
LINE
  5
239
330
23
100
AcDbEntity
  8
0
  6
Continuous
 62
     7
370
    25
100
AcDbLine
 10
162.4961928263
 20
31.9596176331
 30
0.0
 11
162.4961928263
 21
-95.0403823669
 31
0.0
  0
LINE
  5
23A
330
23
100
AcDbEntity
  8
0
  6
Continuous
 62
     7
370
    25
100
AcDbLine
 10
289.4961928263
 20
-95.0403823669
 30
0.0
 11
162.4961928263
 21
-95.0403823669
 31
0.0
  0
LINE
  5
23B
330
23
100
AcDbEntity
  8
0
  6
Continuous
 62
     7
370
    25
100
AcDbLine
 10
133.9211928263
 20
57.3596176331
 30
0.0
 11
133.9211928263
 21
-31.5403823669
 31
0.0
  0
LINE
  5
23C
330
23
100
AcDbEntity
  8
0
  6
Continuous
 62
     7
370
    25
100
AcDbLine
 10
225.9961928263
 20
57.3596176331
 30
0.0
 11
133.9211928263
 21
57.3596176331
 31
0.0
  0
LINE
  5
23D
330
23
100
AcDbEntity
  8
0
  6
Continuous
 62
     7
370
    25
100
AcDbLine
 10
133.9211928263
 20
-31.5403823669
 30
0.0
 11
137.0961928263
 21
-31.5403823669
 31
0.0
  0
LINE
  5
23E
330
23
100
AcDbEntity
  8
0
  6
Continuous
 62
     7
370
    25
100
AcDbLine
 10
-239.0136301713
 20
52.2770306076
 30
0.0
 11
-239.0136301713
 21
-36.6229693924
 31
0.0
  0
LINE
  5
23F
330
23
100
AcDbEntity
  8
0
  6
Continuous
 62
     7
370
    25
100
AcDbLine
 10
-146.9386301713
 20
52.2770306076
 30
0.0
 11
-239.0136301713
 21
52.2770306076
 31
0.0
  0
LINE
  5
240
330
23
100
AcDbEntity
  8
0
  6
Continuous
 62
     7
370
    25
100
AcDbLine
 10
-146.9386301713
 20
55.4520306076
 30
0.0
 11
-146.9386301713
 21
52.2770306076
 31
0.0
  0
LINE
  5
241
330
23
100
AcDbEntity
  8
0
  6
Continuous
 62
     7
370
    25
100
AcDbLine
 10
-239.0136301713
 20
-36.6229693924
 30
0.0
 11
-235.8386301713
 21
-36.6229693924
 31
0.0
  0
LINE
  5
242
330
23
100
AcDbEntity
  8
0
  6
Continuous
 62
     7
370
    25
100
AcDbLine
 10
-235.8386301713
 20
-128.6979693924
 30
0.0
 11
-235.8386301713
 21
-36.6229693924
 31
0.0
  0
LINE
  5
243
330
23
100
AcDbEntity
  8
0
  6
Continuous
 62
     7
370
    25
100
AcDbLine
 10
-58.0386301713
 20
55.4520306076
 30
0.0
 11
-146.9386301713
 21
55.4520306076
 31
0.0
  0
LINE
  5
244
330
23
100
AcDbEntity
  8
0
  6
Continuous
 62
     7
370
    25
100
AcDbLine
 10
-235.8386301713
 20
-128.6979693924
 30
0.0
 11
-146.9386301713
 21
-128.6979693924
 31
0.0
  0
LINE
  5
245
330
23
100
AcDbEntity
  8
0
  6
Continuous
 62
     7
370
    25
100
AcDbLine
 10
-146.9386301713
 20
-128.6979693924
 30
0.0
 11
-146.9386301713
 21
-125.5229693924
 31
0.0
  0
LINE
  5
246
330
23
100
AcDbEntity
  8
0
  6
Continuous
 62
     7
370
    25
100
AcDbLine
 10
-58.0386301713
 20
-36.6229693924
 30
0.0
 11
-58.0386301713
 21
55.4520306076
 31
0.0
  0
LINE
  5
247
330
23
100
AcDbEntity
  8
0
  6
Continuous
 62
     7
370
    25
100
AcDbLine
 10
-146.9386301713
 20
-125.5229693924
 30
0.0
 11
-54.8636301713
 21
-125.5229693924
 31
0.0
  0
LINE
  5
248
330
23
100
AcDbEntity
  8
0
  6
Continuous
 62
     7
370
    25
100
AcDbLine
 10
-54.8636301713
 20
-125.5229693924
 30
0.0
 11
-54.8636301713
 21
-36.6229693924
 31
0.0
  0
LINE
  5
249
330
23
100
AcDbEntity
  8
0
  6
Continuous
 62
     7
370
    25
100
AcDbLine
 10
-54.8636301713
 20
-36.6229693924
 30
0.0
 11
-58.0386301713
 21
-36.6229693924
 31
0.0
  0
LINE
  5
24A
330
23
100
AcDbEntity
  8
0
  6
Continuous
 62
     7
370
    25
100
AcDbLine
 10
-52.2285569835
 20
54.8183241204
 30
0.0
 11
-52.2285569835
 21
-34.0816758796
 31
0.0
  0
LINE
  5
24B
330
23
100
AcDbEntity
  8
0
  6
Continuous
 62
     7
370
    25
100
AcDbLine
 10
39.8464430165
 20
54.8183241204
 30
0.0
 11
-52.2285569835
 21
54.8183241204
 31
0.0
  0
LINE
  5
24C
330
23
100
AcDbEntity
  8
0
  6
Continuous
 62
     7
370
    25
100
AcDbLine
 10
39.8464430165
 20
57.9933241204
 30
0.0
 11
39.8464430165
 21
54.8183241204
 31
0.0
  0
LINE
  5
24D
330
23
100
AcDbEntity
  8
0
  6
Continuous
 62
     7
370
    25
100
AcDbLine
 10
128.7464430165
 20
57.9933241204
 30
0.0
 11
39.8464430165
 21
57.9933241204
 31
0.0
  0
LINE
  5
24E
330
23
100
AcDbEntity
  8
0
  6
Continuous
 62
     7
370
    25
100
AcDbLine
 10
128.7464430165
 20
-34.0816758796
 30
0.0
 11
128.7464430165
 21
57.9933241204
 31
0.0
  0
LINE
  5
24F
330
23
100
AcDbEntity
  8
0
  6
Continuous
 62
     7
370
    25
100
AcDbLine
 10
131.9214430165
 20
-34.0816758796
 30
0.0
 11
128.7464430165
 21
-34.0816758796
 31
0.0
  0
LINE
  5
250
330
23
100
AcDbEntity
  8
0
  6
Continuous
 62
     7
370
    25
100
AcDbLine
 10
131.9214430165
 20
-122.9816758796
 30
0.0
 11
131.9214430165
 21
-34.0816758796
 31
0.0
  0
LINE
  5
251
330
23
100
AcDbEntity
  8
0
  6
Continuous
 62
     7
370
    25
100
AcDbLine
 10
39.8464430165
 20
-122.9816758796
 30
0.0
 11
131.9214430165
 21
-122.9816758796
 31
0.0
  0
LINE
  5
252
330
23
100
AcDbEntity
  8
0
  6
Continuous
 62
     7
370
    25
100
AcDbLine
 10
39.8464430165
 20
-126.1566758796
 30
0.0
 11
39.8464430165
 21
-122.9816758796
 31
0.0
  0
LINE
  5
253
330
23
100
AcDbEntity
  8
0
  6
Continuous
 62
     7
370
    25
100
AcDbLine
 10
-49.0535569835
 20
-126.1566758796
 30
0.0
 11
39.8464430165
 21
-126.1566758796
 31
0.0
  0
LINE
  5
254
330
23
100
AcDbEntity
  8
0
  6
Continuous
 62
     7
370
    25
100
AcDbLine
 10
-49.0535569835
 20
-126.1566758796
 30
0.0
 11
-49.0535569835
 21
-34.0816758796
 31
0.0
  0
LINE
  5
255
330
23
100
AcDbEntity
  8
0
  6
Continuous
 62
     7
370
    25
100
AcDbLine
 10
-52.2285569835
 20
-34.0816758796
 30
0.0
 11
-49.0535569835
 21
-34.0816758796
 31
0.0
  0
VIEWPORT
  5
258
330
23
100
AcDbEntity
  8
0
100
AcDbViewport
 10
0.0
 20
0.0
 30
0.0
 40
205.6
 41
156.0
 68
     1
 69
     1
 12
38.2581345711
 22
-59.3557600976
 13
0.0
 23
0.0
 14
10.0
 24
10.0
 15
10.0
 25
10.0
 16
0.0
 26
0.0
 36
1.0
 17
0.0
 27
0.0
 37
0.0
 42
50.0
 43
0.0
 44
0.0
 45
433.1114185755
 50
0.0
 51
0.0
 72
   100
 90
   557152
  1

281
     0
 71
     1
 74
     0
110
0.0
120
0.0
130
0.0
111
1.0
121
0.0
131
0.0
112
0.0
122
1.0
132
0.0
 79
     0
146
0.0
  0
MTEXT
  5
25F
330
23
100
AcDbEntity
  8
0
  6
Continuous
 62
     7
100
AcDbMText
 10
-241.5549236841
 20
-129.7175357841
 30
0.0
 40
4.83362
 41
0.0
 71
     1
 72
     1
  1
SOLIDWORKS Educational Product.
  7
SLDTEXTSTYLE0
 73
     1
 44
1.0
  0
MTEXT
  5
260
330
23
100
AcDbEntity
  8
0
  6
Continuous
 62
     7
100
AcDbMText
 10
-241.5549236841
 20
-136.9679657841
 30
0.0
 40
4.83362
 41
0.0
 71
     1
 72
     1
  1
For Instructional Use Only.
  7
SLDTEXTSTYLE0
 73
     1
 44
1.0
  0
ENDBLK
  5
25
330
23
100
AcDbEntity
  8
0
100
AcDbBlockEnd
  0
ENDSEC
  0
SECTION
  2
ENTITIES
  0
CIRCLE
  5
BA
330
1F
100
AcDbEntity
  8
0
  6
Continuous
 62
     7
370
    25
100
AcDbCircle
 10
118.2054430165
 20
78.5316758796
 30
0.0
 40
11.43000000000002
  0
LINE
  5
C4
330
1F
100
AcDbEntity
  8
0
  6
Continuous
 62
     7
370
    25
100
AcDbLine
 10
-238.3799236841
 20
-56.8164570391
 30
0.0
 11
-238.3799236841
 21
-148.8914570391
 31
0.0
  0
LINE
  5
C5
330
1F
100
AcDbEntity
  8
0
  6
Continuous
 62
     7
370
    25
100
AcDbLine
 10
-238.3799236841
 20
-56.8164570391
 30
0.0
 11
-149.4799236841
 21
-56.8164570391
 31
0.0
  0
LINE
  5
C6
330
1F
100
AcDbEntity
  8
0
  6
Continuous
 62
     7
370
    25
100
AcDbLine
 10
-149.4799236841
 20
-56.8164570391
 30
0.0
 11
-149.4799236841
 21
-59.9914570391
 31
0.0
  0
LINE
  5
C7
330
1F
100
AcDbEntity
  8
0
  6
Continuous
 62
     7
370
    25
100
AcDbLine
 10
-149.4799236841
 20
-59.9914570391
 30
0.0
 11
-57.4049236841
 21
-59.9914570391
 31
0.0
  0
LINE
  5
C8
330
1F
100
AcDbEntity
  8
0
  6
Continuous
 62
     7
370
    25
100
AcDbLine
 10
-57.4049236841
 20
-59.9914570391
 30
0.0
 11
-57.4049236841
 21
-148.8914570391
 31
0.0
  0
LINE
  5
C9
330
1F
100
AcDbEntity
  8
0
  6
Continuous
 62
     7
370
    25
100
AcDbLine
 10
-57.4049236841
 20
-148.8914570391
 30
0.0
 11
-60.5799236841
 21
-148.8914570391
 31
0.0
  0
LINE
  5
CA
330
1F
100
AcDbEntity
  8
0
  6
Continuous
 62
     7
370
    25
100
AcDbLine
 10
-60.5799236841
 20
-148.8914570391
 30
0.0
 11
-60.5799236841
 21
-240.9664570391
 31
0.0
  0
LINE
  5
CB
330
1F
100
AcDbEntity
  8
0
  6
Continuous
 62
     7
370
    25
100
AcDbLine
 10
-60.5799236841
 20
-240.9664570391
 30
0.0
 11
-149.4799236841
 21
-240.9664570391
 31
0.0
  0
LINE
  5
CC
330
1F
100
AcDbEntity
  8
0
  6
Continuous
 62
     7
370
    25
100
AcDbLine
 10
-149.4799236841
 20
-240.9664570391
 30
0.0
 11
-149.4799236841
 21
-237.7914570391
 31
0.0
  0
LINE
  5
CD
330
1F
100
AcDbEntity
  8
0
  6
Continuous
 62
     7
370
    25
100
AcDbLine
 10
-149.4799236841
 20
-237.7914570391
 30
0.0
 11
-241.5549236841
 21
-237.7914570391
 31
0.0
  0
LINE
  5
CE
330
1F
100
AcDbEntity
  8
0
  6
Continuous
 62
     7
370
    25
100
AcDbLine
 10
-241.5549236841
 20
-148.8914570391
 30
0.0
 11
-238.3799236841
 21
-148.8914570391
 31
0.0
  0
LINE
  5
CF
330
1F
100
AcDbEntity
  8
0
  6
Continuous
 62
     7
370
    25
100
AcDbLine
 10
-241.5549236841
 20
-237.7914570391
 30
0.0
 11
-241.5549236841
 21
-148.8914570391
 31
0.0
  0
LINE
  5
D0
330
1F
100
AcDbEntity
  8
0
  6
Continuous
 62
     7
370
    25
100
AcDbLine
 10
136.8173791135
 20
-63.2594895876
 30
0.0
 11
225.7173791135
 21
-63.2594895876
 31
0.0
  0
LINE
  5
D1
330
1F
100
AcDbEntity
  8
0
  6
Continuous
 62
     7
370
    25
100
AcDbLine
 10
225.7173791135
 20
-63.2594895876
 30
0.0
 11
225.7173791135
 21
-66.4344895876
 31
0.0
  0
LINE
  5
D2
330
1F
100
AcDbEntity
  8
0
  6
Continuous
 62
     7
370
    25
100
AcDbLine
 10
225.7173791135
 20
-66.4344895876
 30
0.0
 11
317.7923791135
 21
-66.4344895876
 31
0.0
  0
LINE
  5
D3
330
1F
100
AcDbEntity
  8
0
  6
Continuous
 62
     7
370
    25
100
AcDbLine
 10
317.7923791135
 20
-66.4344895876
 30
0.0
 11
317.7923791135
 21
-155.3344895876
 31
0.0
  0
LINE
  5
D4
330
1F
100
AcDbEntity
  8
0
  6
Continuous
 62
     7
370
    25
100
AcDbLine
 10
317.7923791135
 20
-155.3344895876
 30
0.0
 11
314.6173791135
 21
-155.3344895876
 31
0.0
  0
LINE
  5
D5
330
1F
100
AcDbEntity
  8
0
  6
Continuous
 62
     7
370
    25
100
AcDbLine
 10
314.6173791135
 20
-155.3344895876
 30
0.0
 11
314.6173791135
 21
-247.4094895876
 31
0.0
  0
LINE
  5
D6
330
1F
100
AcDbEntity
  8
0
  6
Continuous
 62
     7
370
    25
100
AcDbLine
 10
314.6173791135
 20
-247.4094895876
 30
0.0
 11
225.7173791135
 21
-247.4094895876
 31
0.0
  0
LINE
  5
D7
330
1F
100
AcDbEntity
  8
0
  6
Continuous
 62
     7
370
    25
100
AcDbLine
 10
133.6423791135
 20
-244.2344895876
 30
0.0
 11
133.6423791135
 21
-155.3344895876
 31
0.0
  0
LINE
  5
D8
330
1F
100
AcDbEntity
  8
0
  6
Continuous
 62
     7
370
    25
100
AcDbLine
 10
133.6423791135
 20
-155.3344895876
 30
0.0
 11
136.8173791135
 21
-155.3344895876
 31
0.0
  0
LINE
  5
D9
330
1F
100
AcDbEntity
  8
0
  6
Continuous
 62
     7
370
    25
100
AcDbLine
 10
136.8173791135
 20
-63.2594895876
 30
0.0
 11
136.8173791135
 21
-155.3344895876
 31
0.0
  0
LINE
  5
DA
330
1F
100
AcDbEntity
  8
0
  6
Continuous
 62
     7
370
    25
100
AcDbLine
 10
225.7173791135
 20
-247.4094895876
 30
0.0
 11
225.7173791135
 21
-244.2344895876
 31
0.0
  0
LINE
  5
DB
330
1F
100
AcDbEntity
  8
0
  6
Continuous
 62
     7
370
    25
100
AcDbLine
 10
225.7173791135
 20
-244.2344895876
 30
0.0
 11
133.6423791135
 21
-244.2344895876
 31
0.0
  0
LINE
  5
DC
330
1F
100
AcDbEntity
  8
0
  6
Continuous
 62
     7
370
    25
100
AcDbLine
 10
-45.2762850525
 20
-87.8879954097
 30
0.0
 11
-1.0294850525
 21
-87.8879954097
 31
0.0
  0
LINE
  5
DD
330
1F
100
AcDbEntity
  8
0
  6
Continuous
 62
     7
370
    25
100
AcDbLine
 10
-45.2762850525
 20
-126.8769954097
 30
0.0
 11
-45.2762850525
 21
-87.8879954097
 31
0.0
  0
LINE
  5
DE
330
1F
100
AcDbEntity
  8
0
  6
Continuous
 62
     7
370
    25
100
AcDbLine
 10
-45.2762850525
 20
-126.8769954097
 30
0.0
 11
-1.0294850525
 21
-126.8769954097
 31
0.0
  0
LINE
  5
DF
330
1F
100
AcDbEntity
  8
0
  6
Continuous
 62
     7
370
    25
100
AcDbLine
 10
-52.0834850525
 20
-59.7574954097
 30
0.0
 11
-52.0834850525
 21
-151.8324954097
 31
0.0
  0
LINE
  5
E0
330
1F
100
AcDbEntity
  8
0
  6
Continuous
 62
     7
370
    25
100
AcDbLine
 10
-52.0834850525
 20
-59.7574954097
 30
0.0
 11
36.8165149475
 21
-59.7574954097
 31
0.0
  0
LINE
  5
E1
330
1F
100
AcDbEntity
  8
0
  6
Continuous
 62
     7
370
    25
100
AcDbLine
 10
36.8165149475
 20
-59.7574954097
 30
0.0
 11
36.8165149475
 21
-62.9324954097
 31
0.0
  0
LINE
  5
E2
330
1F
100
AcDbEntity
  8
0
  6
Continuous
 62
     7
370
    25
100
AcDbLine
 10
36.8165149475
 20
-62.9324954097
 30
0.0
 11
128.8915149475
 21
-62.9324954097
 31
0.0
  0
LINE
  5
E3
330
1F
100
AcDbEntity
  8
0
  6
Continuous
 62
     7
370
    25
100
AcDbLine
 10
125.7165149475
 20
-151.8324954097
 30
0.0
 11
125.7165149475
 21
-243.9074954097
 31
0.0
  0
LINE
  5
E4
330
1F
100
AcDbEntity
  8
0
  6
Continuous
 62
     7
370
    25
100
AcDbLine
 10
-55.2584850525
 20
-151.8324954097
 30
0.0
 11
-52.0834850525
 21
-151.8324954097
 31
0.0
  0
LINE
  5
E5
330
1F
100
AcDbEntity
  8
0
  6
Continuous
 62
     7
370
    25
100
AcDbLine
 10
-1.0294850525
 20
-87.8879954097
 30
0.0
 11
-1.0294850525
 21
-126.8769954097
 31
0.0
  0
LINE
  5
E6
330
1F
100
AcDbEntity
  8
0
  6
Continuous
 62
     7
370
    25
100
AcDbLine
 10
128.8915149475
 20
-62.9324954097
 30
0.0
 11
128.8915149475
 21
-151.8324954097
 31
0.0
  0
LINE
  5
E7
330
1F
100
AcDbEntity
  8
0
  6
Continuous
 62
     7
370
    25
100
AcDbLine
 10
36.8165149475
 20
-240.7324954097
 30
0.0
 11
-55.2584850525
 21
-240.7324954097
 31
0.0
  0
LINE
  5
E8
330
1F
100
AcDbEntity
  8
0
  6
Continuous
 62
     7
370
    25
100
AcDbLine
 10
-55.2584850525
 20
-240.7324954097
 30
0.0
 11
-55.2584850525
 21
-151.8324954097
 31
0.0
  0
LINE
  5
E9
330
1F
100
AcDbEntity
  8
0
  6
Continuous
 62
     7
370
    25
100
AcDbLine
 10
128.8915149475
 20
-151.8324954097
 30
0.0
 11
125.7165149475
 21
-151.8324954097
 31
0.0
  0
LINE
  5
EA
330
1F
100
AcDbEntity
  8
0
  6
Continuous
 62
     7
370
    25
100
AcDbLine
 10
125.7165149475
 20
-243.9074954097
 30
0.0
 11
36.8165149475
 21
-243.9074954097
 31
0.0
  0
LINE
  5
EB
330
1F
100
AcDbEntity
  8
0
  6
Continuous
 62
     7
370
    25
100
AcDbLine
 10
36.8165149475
 20
-243.9074954097
 30
0.0
 11
36.8165149475
 21
-240.7324954097
 31
0.0
  0
LINE
  5
EC
330
1F
100
AcDbEntity
  8
0
  6
Continuous
 62
     7
370
    25
100
AcDbLine
 10
289.4961928263
 20
95.0403823669
 30
0.0
 11
162.4961928263
 21
95.0403823669
 31
0.0
  0
LINE
  5
ED
330
1F
100
AcDbEntity
  8
0
  6
Continuous
 62
     7
370
    25
100
AcDbLine
 10
137.0961928263
 20
123.6153823669
 30
0.0
 11
225.9961928263
 21
123.6153823669
 31
0.0
  0
LINE
  5
EE
330
1F
100
AcDbEntity
  8
0
  6
Continuous
 62
     7
370
    25
100
AcDbLine
 10
225.9961928263
 20
123.6153823669
 30
0.0
 11
225.9961928263
 21
120.4403823669
 31
0.0
  0
LINE
  5
EF
330
1F
100
AcDbEntity
  8
0
  6
Continuous
 62
     7
370
    25
100
AcDbLine
 10
225.9961928263
 20
120.4403823669
 30
0.0
 11
318.0711928263
 21
120.4403823669
 31
0.0
  0
LINE
  5
F0
330
1F
100
AcDbEntity
  8
0
  6
Continuous
 62
     7
370
    25
100
AcDbLine
 10
314.8961928263
 20
-60.5346176331
 30
0.0
 11
225.9961928263
 21
-60.5346176331
 31
0.0
  0
LINE
  5
F1
330
1F
100
AcDbEntity
  8
0
  6
Continuous
 62
     7
370
    25
100
AcDbLine
 10
225.9961928263
 20
-60.5346176331
 30
0.0
 11
225.9961928263
 21
-57.3596176331
 31
0.0
  0
LINE
  5
F2
330
1F
100
AcDbEntity
  8
0
  6
Continuous
 62
     7
370
    25
100
AcDbLine
 10
133.9211928263
 20
31.5403823669
 30
0.0
 11
137.0961928263
 21
31.5403823669
 31
0.0
  0
LINE
  5
F3
330
1F
100
AcDbEntity
  8
0
  6
Continuous
 62
     7
370
    25
100
AcDbLine
 10
289.4961928263
 20
-31.9596176331
 30
0.0
 11
289.4961928263
 21
95.0403823669
 31
0.0
  0
LINE
  5
F4
330
1F
100
AcDbEntity
  8
0
  6
Continuous
 62
     7
370
    25
100
AcDbLine
 10
137.0961928263
 20
123.6153823669
 30
0.0
 11
137.0961928263
 21
31.5403823669
 31
0.0
  0
LINE
  5
F5
330
1F
100
AcDbEntity
  8
0
  6
Continuous
 62
     7
370
    25
100
AcDbLine
 10
162.4961928263
 20
-31.9596176331
 30
0.0
 11
162.4961928263
 21
95.0403823669
 31
0.0
  0
LINE
  5
F6
330
1F
100
AcDbEntity
  8
0
  6
Continuous
 62
     7
370
    25
100
AcDbLine
 10
318.0711928263
 20
120.4403823669
 30
0.0
 11
318.0711928263
 21
31.5403823669
 31
0.0
  0
LINE
  5
F7
330
1F
100
AcDbEntity
  8
0
  6
Continuous
 62
     7
370
    25
100
AcDbLine
 10
318.0711928263
 20
31.5403823669
 30
0.0
 11
314.8961928263
 21
31.5403823669
 31
0.0
  0
LINE
  5
F8
330
1F
100
AcDbEntity
  8
0
  6
Continuous
 62
     7
370
    25
100
AcDbLine
 10
314.8961928263
 20
31.5403823669
 30
0.0
 11
314.8961928263
 21
-60.5346176331
 31
0.0
  0
LINE
  5
F9
330
1F
100
AcDbEntity
  8
0
  6
Continuous
 62
     7
370
    25
100
AcDbLine
 10
225.9961928263
 20
-57.3596176331
 30
0.0
 11
133.9211928263
 21
-57.3596176331
 31
0.0
  0
LINE
  5
FA
330
1F
100
AcDbEntity
  8
0
  6
Continuous
 62
     7
370
    25
100
AcDbLine
 10
133.9211928263
 20
-57.3596176331
 30
0.0
 11
133.9211928263
 21
31.5403823669
 31
0.0
  0
LINE
  5
FB
330
1F
100
AcDbEntity
  8
0
  6
Continuous
 62
     7
370
    25
100
AcDbLine
 10
289.4961928263
 20
-31.9596176331
 30
0.0
 11
162.4961928263
 21
-31.9596176331
 31
0.0
  0
LINE
  5
FC
330
1F
100
AcDbEntity
  8
0
  6
Continuous
 62
     7
370
    25
100
AcDbLine
 10
-235.8386301713
 20
128.6979693924
 30
0.0
 11
-146.9386301713
 21
128.6979693924
 31
0.0
  0
LINE
  5
FD
330
1F
100
AcDbEntity
  8
0
  6
Continuous
 62
     7
370
    25
100
AcDbLine
 10
-146.9386301713
 20
128.6979693924
 30
0.0
 11
-146.9386301713
 21
125.5229693924
 31
0.0
  0
LINE
  5
FE
330
1F
100
AcDbEntity
  8
0
  6
Continuous
 62
     7
370
    25
100
AcDbLine
 10
-146.9386301713
 20
125.5229693924
 30
0.0
 11
-54.8636301713
 21
125.5229693924
 31
0.0
  0
LINE
  5
FF
330
1F
100
AcDbEntity
  8
0
  6
Continuous
 62
     7
370
    25
100
AcDbLine
 10
-54.8636301713
 20
125.5229693924
 30
0.0
 11
-54.8636301713
 21
36.6229693924
 31
0.0
  0
LINE
  5
100
330
1F
100
AcDbEntity
  8
0
  6
Continuous
 62
     7
370
    25
100
AcDbLine
 10
-54.8636301713
 20
36.6229693924
 30
0.0
 11
-58.0386301713
 21
36.6229693924
 31
0.0
  0
LINE
  5
101
330
1F
100
AcDbEntity
  8
0
  6
Continuous
 62
     7
370
    25
100
AcDbLine
 10
-58.0386301713
 20
36.6229693924
 30
0.0
 11
-58.0386301713
 21
-55.4520306076
 31
0.0
  0
LINE
  5
102
330
1F
100
AcDbEntity
  8
0
  6
Continuous
 62
     7
370
    25
100
AcDbLine
 10
-58.0386301713
 20
-55.4520306076
 30
0.0
 11
-146.9386301713
 21
-55.4520306076
 31
0.0
  0
LINE
  5
103
330
1F
100
AcDbEntity
  8
0
  6
Continuous
 62
     7
370
    25
100
AcDbLine
 10
-146.9386301713
 20
-55.4520306076
 30
0.0
 11
-146.9386301713
 21
-52.2770306076
 31
0.0
  0
LINE
  5
104
330
1F
100
AcDbEntity
  8
0
  6
Continuous
 62
     7
370
    25
100
AcDbLine
 10
-146.9386301713
 20
-52.2770306076
 30
0.0
 11
-239.0136301713
 21
-52.2770306076
 31
0.0
  0
LINE
  5
105
330
1F
100
AcDbEntity
  8
0
  6
Continuous
 62
     7
370
    25
100
AcDbLine
 10
-239.0136301713
 20
-52.2770306076
 30
0.0
 11
-239.0136301713
 21
36.6229693924
 31
0.0
  0
LINE
  5
106
330
1F
100
AcDbEntity
  8
0
  6
Continuous
 62
     7
370
    25
100
AcDbLine
 10
-239.0136301713
 20
36.6229693924
 30
0.0
 11
-235.8386301713
 21
36.6229693924
 31
0.0
  0
LINE
  5
107
330
1F
100
AcDbEntity
  8
0
  6
Continuous
 62
     7
370
    25
100
AcDbLine
 10
-235.8386301713
 20
128.6979693924
 30
0.0
 11
-235.8386301713
 21
36.6229693924
 31
0.0
  0
LINE
  5
108
330
1F
100
AcDbEntity
  8
0
  6
Continuous
 62
     7
370
    25
100
AcDbLine
 10
-49.0535569835
 20
126.1566758796
 30
0.0
 11
39.8464430165
 21
126.1566758796
 31
0.0
  0
LINE
  5
109
330
1F
100
AcDbEntity
  8
0
  6
Continuous
 62
     7
370
    25
100
AcDbLine
 10
39.8464430165
 20
126.1566758796
 30
0.0
 11
39.8464430165
 21
122.9816758796
 31
0.0
  0
LINE
  5
10A
330
1F
100
AcDbEntity
  8
0
  6
Continuous
 62
     7
370
    25
100
AcDbLine
 10
39.8464430165
 20
122.9816758796
 30
0.0
 11
131.9214430165
 21
122.9816758796
 31
0.0
  0
LINE
  5
10B
330
1F
100
AcDbEntity
  8
0
  6
Continuous
 62
     7
370
    25
100
AcDbLine
 10
131.9214430165
 20
34.0816758796
 30
0.0
 11
128.7464430165
 21
34.0816758796
 31
0.0
  0
LINE
  5
10C
330
1F
100
AcDbEntity
  8
0
  6
Continuous
 62
     7
370
    25
100
AcDbLine
 10
128.7464430165
 20
34.0816758796
 30
0.0
 11
128.7464430165
 21
-57.9933241204
 31
0.0
  0
LINE
  5
10D
330
1F
100
AcDbEntity
  8
0
  6
Continuous
 62
     7
370
    25
100
AcDbLine
 10
-49.0535569835
 20
126.1566758796
 30
0.0
 11
-49.0535569835
 21
34.0816758796
 31
0.0
  0
LINE
  5
10E
330
1F
100
AcDbEntity
  8
0
  6
Continuous
 62
     7
370
    25
100
AcDbLine
 10
39.8464430165
 20
-57.9933241204
 30
0.0
 11
39.8464430165
 21
-54.8183241204
 31
0.0
  0
LINE
  5
10F
330
1F
100
AcDbEntity
  8
0
  6
Continuous
 62
     7
370
    25
100
AcDbLine
 10
-52.2285569835
 20
34.0816758796
 30
0.0
 11
-49.0535569835
 21
34.0816758796
 31
0.0
  0
LINE
  5
110
330
1F
100
AcDbEntity
  8
0
  6
Continuous
 62
     7
370
    25
100
AcDbLine
 10
-52.2285569835
 20
-54.8183241204
 30
0.0
 11
-52.2285569835
 21
34.0816758796
 31
0.0
  0
LINE
  5
111
330
1F
100
AcDbEntity
  8
0
  6
Continuous
 62
     7
370
    25
100
AcDbLine
 10
131.9214430165
 20
122.9816758796
 30
0.0
 11
131.9214430165
 21
34.0816758796
 31
0.0
  0
LINE
  5
112
330
1F
100
AcDbEntity
  8
0
  6
Continuous
 62
     7
370
    25
100
AcDbLine
 10
39.8464430165
 20
-54.8183241204
 30
0.0
 11
-52.2285569835
 21
-54.8183241204
 31
0.0
  0
LINE
  5
113
330
1F
100
AcDbEntity
  8
0
  6
Continuous
 62
     7
370
    25
100
AcDbLine
 10
128.7464430165
 20
-57.9933241204
 30
0.0
 11
39.8464430165
 21
-57.9933241204
 31
0.0
  0
MTEXT
  5
25D
330
1F
100
AcDbEntity
  8
0
  6
Continuous
 62
     7
100
AcDbMText
 10
-241.5549236841
 20
-248.4290559793
 30
0.0
 40
4.83362
 41
0.0
 71
     1
 72
     1
  1
SOLIDWORKS Educational Product.
  7
SLDTEXTSTYLE0
 73
     1
 44
1.0
  0
MTEXT
  5
25E
330
1F
100
AcDbEntity
  8
0
  6
Continuous
 62
     7
100
AcDbMText
 10
-241.5549236841
 20
-255.6794859793
 30
0.0
 40
4.83362
 41
0.0
 71
     1
 72
     1
  1
For Instructional Use Only.
  7
SLDTEXTSTYLE0
 73
     1
 44
1.0
  0
CIRCLE
  5
158
330
1B
100
AcDbEntity
 67
     1
  8
0
  6
Continuous
 62
     7
370
    25
100
AcDbCircle
 10
118.2054430165
 20
78.5316758796
 30
0.0
 40
11.43000000000001
  0
LINE
  5
165
330
1B
100
AcDbEntity
 67
     1
  8
0
  6
Continuous
 62
     7
370
    25
100
AcDbLine
 10
-238.3799236841
 20
-56.8164570391
 30
0.0
 11
-238.3799236841
 21
-148.8914570391
 31
0.0
  0
LINE
  5
166
330
1B
100
AcDbEntity
 67
     1
  8
0
  6
Continuous
 62
     7
370
    25
100
AcDbLine
 10
-238.3799236841
 20
-56.8164570391
 30
0.0
 11
-149.4799236841
 21
-56.8164570391
 31
0.0
  0
LINE
  5
167
330
1B
100
AcDbEntity
 67
     1
  8
0
  6
Continuous
 62
     7
370
    25
100
AcDbLine
 10
-149.4799236841
 20
-56.8164570391
 30
0.0
 11
-149.4799236841
 21
-59.9914570391
 31
0.0
  0
LINE
  5
168
330
1B
100
AcDbEntity
 67
     1
  8
0
  6
Continuous
 62
     7
370
    25
100
AcDbLine
 10
-149.4799236841
 20
-59.9914570391
 30
0.0
 11
-57.4049236841
 21
-59.9914570391
 31
0.0
  0
LINE
  5
169
330
1B
100
AcDbEntity
 67
     1
  8
0
  6
Continuous
 62
     7
370
    25
100
AcDbLine
 10
-57.4049236841
 20
-59.9914570391
 30
0.0
 11
-57.4049236841
 21
-148.8914570391
 31
0.0
  0
LINE
  5
16A
330
1B
100
AcDbEntity
 67
     1
  8
0
  6
Continuous
 62
     7
370
    25
100
AcDbLine
 10
-57.4049236841
 20
-148.8914570391
 30
0.0
 11
-60.5799236841
 21
-148.8914570391
 31
0.0
  0
LINE
  5
16B
330
1B
100
AcDbEntity
 67
     1
  8
0
  6
Continuous
 62
     7
370
    25
100
AcDbLine
 10
-60.5799236841
 20
-148.8914570391
 30
0.0
 11
-60.5799236841
 21
-240.9664570391
 31
0.0
  0
LINE
  5
16C
330
1B
100
AcDbEntity
 67
     1
  8
0
  6
Continuous
 62
     7
370
    25
100
AcDbLine
 10
-60.5799236841
 20
-240.9664570391
 30
0.0
 11
-149.4799236841
 21
-240.9664570391
 31
0.0
  0
LINE
  5
16D
330
1B
100
AcDbEntity
 67
     1
  8
0
  6
Continuous
 62
     7
370
    25
100
AcDbLine
 10
-149.4799236841
 20
-240.9664570391
 30
0.0
 11
-149.4799236841
 21
-237.7914570391
 31
0.0
  0
LINE
  5
16E
330
1B
100
AcDbEntity
 67
     1
  8
0
  6
Continuous
 62
     7
370
    25
100
AcDbLine
 10
-149.4799236841
 20
-237.7914570391
 30
0.0
 11
-241.5549236841
 21
-237.7914570391
 31
0.0
  0
LINE
  5
16F
330
1B
100
AcDbEntity
 67
     1
  8
0
  6
Continuous
 62
     7
370
    25
100
AcDbLine
 10
-241.5549236841
 20
-148.8914570391
 30
0.0
 11
-238.3799236841
 21
-148.8914570391
 31
0.0
  0
LINE
  5
170
330
1B
100
AcDbEntity
 67
     1
  8
0
  6
Continuous
 62
     7
370
    25
100
AcDbLine
 10
-241.5549236841
 20
-237.7914570391
 30
0.0
 11
-241.5549236841
 21
-148.8914570391
 31
0.0
  0
LINE
  5
171
330
1B
100
AcDbEntity
 67
     1
  8
0
  6
Continuous
 62
     7
370
    25
100
AcDbLine
 10
225.7173791135
 20
-66.4344895876
 30
0.0
 11
317.7923791135
 21
-66.4344895876
 31
0.0
  0
LINE
  5
172
330
1B
100
AcDbEntity
 67
     1
  8
0
  6
Continuous
 62
     7
370
    25
100
AcDbLine
 10
317.7923791135
 20
-66.4344895876
 30
0.0
 11
317.7923791135
 21
-155.3344895876
 31
0.0
  0
LINE
  5
173
330
1B
100
AcDbEntity
 67
     1
  8
0
  6
Continuous
 62
     7
370
    25
100
AcDbLine
 10
317.7923791135
 20
-155.3344895876
 30
0.0
 11
314.6173791135
 21
-155.3344895876
 31
0.0
  0
LINE
  5
174
330
1B
100
AcDbEntity
 67
     1
  8
0
  6
Continuous
 62
     7
370
    25
100
AcDbLine
 10
314.6173791135
 20
-155.3344895876
 30
0.0
 11
314.6173791135
 21
-247.4094895876
 31
0.0
  0
LINE
  5
175
330
1B
100
AcDbEntity
 67
     1
  8
0
  6
Continuous
 62
     7
370
    25
100
AcDbLine
 10
314.6173791135
 20
-247.4094895876
 30
0.0
 11
225.7173791135
 21
-247.4094895876
 31
0.0
  0
LINE
  5
176
330
1B
100
AcDbEntity
 67
     1
  8
0
  6
Continuous
 62
     7
370
    25
100
AcDbLine
 10
225.7173791135
 20
-247.4094895876
 30
0.0
 11
225.7173791135
 21
-244.2344895876
 31
0.0
  0
LINE
  5
177
330
1B
100
AcDbEntity
 67
     1
  8
0
  6
Continuous
 62
     7
370
    25
100
AcDbLine
 10
225.7173791135
 20
-244.2344895876
 30
0.0
 11
133.6423791135
 21
-244.2344895876
 31
0.0
  0
LINE
  5
178
330
1B
100
AcDbEntity
 67
     1
  8
0
  6
Continuous
 62
     7
370
    25
100
AcDbLine
 10
133.6423791135
 20
-244.2344895876
 30
0.0
 11
133.6423791135
 21
-155.3344895876
 31
0.0
  0
LINE
  5
179
330
1B
100
AcDbEntity
 67
     1
  8
0
  6
Continuous
 62
     7
370
    25
100
AcDbLine
 10
133.6423791135
 20
-155.3344895876
 30
0.0
 11
136.8173791135
 21
-155.3344895876
 31
0.0
  0
LINE
  5
17A
330
1B
100
AcDbEntity
 67
     1
  8
0
  6
Continuous
 62
     7
370
    25
100
AcDbLine
 10
136.8173791135
 20
-63.2594895876
 30
0.0
 11
136.8173791135
 21
-155.3344895876
 31
0.0
  0
LINE
  5
17B
330
1B
100
AcDbEntity
 67
     1
  8
0
  6
Continuous
 62
     7
370
    25
100
AcDbLine
 10
136.8173791135
 20
-63.2594895876
 30
0.0
 11
225.7173791135
 21
-63.2594895876
 31
0.0
  0
LINE
  5
17C
330
1B
100
AcDbEntity
 67
     1
  8
0
  6
Continuous
 62
     7
370
    25
100
AcDbLine
 10
225.7173791135
 20
-63.2594895876
 30
0.0
 11
225.7173791135
 21
-66.4344895876
 31
0.0
  0
LINE
  5
17D
330
1B
100
AcDbEntity
 67
     1
  8
0
  6
Continuous
 62
     7
370
    25
100
AcDbLine
 10
-1.0294850525
 20
-87.8879954097
 30
0.0
 11
-1.0294850525
 21
-126.8769954097
 31
0.0
  0
LINE
  5
17E
330
1B
100
AcDbEntity
 67
     1
  8
0
  6
Continuous
 62
     7
370
    25
100
AcDbLine
 10
-45.2762850525
 20
-87.8879954097
 30
0.0
 11
-1.0294850525
 21
-87.8879954097
 31
0.0
  0
LINE
  5
17F
330
1B
100
AcDbEntity
 67
     1
  8
0
  6
Continuous
 62
     7
370
    25
100
AcDbLine
 10
-45.2762850525
 20
-126.8769954097
 30
0.0
 11
-45.2762850525
 21
-87.8879954097
 31
0.0
  0
LINE
  5
180
330
1B
100
AcDbEntity
 67
     1
  8
0
  6
Continuous
 62
     7
370
    25
100
AcDbLine
 10
-45.2762850525
 20
-126.8769954097
 30
0.0
 11
-1.0294850525
 21
-126.8769954097
 31
0.0
  0
LINE
  5
181
330
1B
100
AcDbEntity
 67
     1
  8
0
  6
Continuous
 62
     7
370
    25
100
AcDbLine
 10
-52.0834850525
 20
-59.7574954097
 30
0.0
 11
-52.0834850525
 21
-151.8324954097
 31
0.0
  0
LINE
  5
182
330
1B
100
AcDbEntity
 67
     1
  8
0
  6
Continuous
 62
     7
370
    25
100
AcDbLine
 10
36.8165149475
 20
-62.9324954097
 30
0.0
 11
128.8915149475
 21
-62.9324954097
 31
0.0
  0
LINE
  5
183
330
1B
100
AcDbEntity
 67
     1
  8
0
  6
Continuous
 62
     7
370
    25
100
AcDbLine
 10
128.8915149475
 20
-62.9324954097
 30
0.0
 11
128.8915149475
 21
-151.8324954097
 31
0.0
  0
LINE
  5
184
330
1B
100
AcDbEntity
 67
     1
  8
0
  6
Continuous
 62
     7
370
    25
100
AcDbLine
 10
125.7165149475
 20
-151.8324954097
 30
0.0
 11
125.7165149475
 21
-243.9074954097
 31
0.0
  0
LINE
  5
185
330
1B
100
AcDbEntity
 67
     1
  8
0
  6
Continuous
 62
     7
370
    25
100
AcDbLine
 10
-55.2584850525
 20
-151.8324954097
 30
0.0
 11
-52.0834850525
 21
-151.8324954097
 31
0.0
  0
LINE
  5
186
330
1B
100
AcDbEntity
 67
     1
  8
0
  6
Continuous
 62
     7
370
    25
100
AcDbLine
 10
36.8165149475
 20
-59.7574954097
 30
0.0
 11
36.8165149475
 21
-62.9324954097
 31
0.0
  0
LINE
  5
187
330
1B
100
AcDbEntity
 67
     1
  8
0
  6
Continuous
 62
     7
370
    25
100
AcDbLine
 10
36.8165149475
 20
-243.9074954097
 30
0.0
 11
36.8165149475
 21
-240.7324954097
 31
0.0
  0
LINE
  5
188
330
1B
100
AcDbEntity
 67
     1
  8
0
  6
Continuous
 62
     7
370
    25
100
AcDbLine
 10
36.8165149475
 20
-240.7324954097
 30
0.0
 11
-55.2584850525
 21
-240.7324954097
 31
0.0
  0
LINE
  5
189
330
1B
100
AcDbEntity
 67
     1
  8
0
  6
Continuous
 62
     7
370
    25
100
AcDbLine
 10
-55.2584850525
 20
-240.7324954097
 30
0.0
 11
-55.2584850525
 21
-151.8324954097
 31
0.0
  0
LINE
  5
18A
330
1B
100
AcDbEntity
 67
     1
  8
0
  6
Continuous
 62
     7
370
    25
100
AcDbLine
 10
128.8915149475
 20
-151.8324954097
 30
0.0
 11
125.7165149475
 21
-151.8324954097
 31
0.0
  0
LINE
  5
18B
330
1B
100
AcDbEntity
 67
     1
  8
0
  6
Continuous
 62
     7
370
    25
100
AcDbLine
 10
125.7165149475
 20
-243.9074954097
 30
0.0
 11
36.8165149475
 21
-243.9074954097
 31
0.0
  0
LINE
  5
18C
330
1B
100
AcDbEntity
 67
     1
  8
0
  6
Continuous
 62
     7
370
    25
100
AcDbLine
 10
-52.0834850525
 20
-59.7574954097
 30
0.0
 11
36.8165149475
 21
-59.7574954097
 31
0.0
  0
LINE
  5
18D
330
1B
100
AcDbEntity
 67
     1
  8
0
  6
Continuous
 62
     7
370
    25
100
AcDbLine
 10
289.4961928263
 20
95.0403823669
 30
0.0
 11
162.4961928263
 21
95.0403823669
 31
0.0
  0
LINE
  5
18E
330
1B
100
AcDbEntity
 67
     1
  8
0
  6
Continuous
 62
     7
370
    25
100
AcDbLine
 10
289.4961928263
 20
-31.9596176331
 30
0.0
 11
162.4961928263
 21
-31.9596176331
 31
0.0
  0
LINE
  5
18F
330
1B
100
AcDbEntity
 67
     1
  8
0
  6
Continuous
 62
     7
370
    25
100
AcDbLine
 10
314.8961928263
 20
-60.5346176331
 30
0.0
 11
225.9961928263
 21
-60.5346176331
 31
0.0
  0
LINE
  5
190
330
1B
100
AcDbEntity
 67
     1
  8
0
  6
Continuous
 62
     7
370
    25
100
AcDbLine
 10
225.9961928263
 20
-60.5346176331
 30
0.0
 11
225.9961928263
 21
-57.3596176331
 31
0.0
  0
LINE
  5
191
330
1B
100
AcDbEntity
 67
     1
  8
0
  6
Continuous
 62
     7
370
    25
100
AcDbLine
 10
225.9961928263
 20
-57.3596176331
 30
0.0
 11
133.9211928263
 21
-57.3596176331
 31
0.0
  0
LINE
  5
192
330
1B
100
AcDbEntity
 67
     1
  8
0
  6
Continuous
 62
     7
370
    25
100
AcDbLine
 10
133.9211928263
 20
-57.3596176331
 30
0.0
 11
133.9211928263
 21
31.5403823669
 31
0.0
  0
LINE
  5
193
330
1B
100
AcDbEntity
 67
     1
  8
0
  6
Continuous
 62
     7
370
    25
100
AcDbLine
 10
133.9211928263
 20
31.5403823669
 30
0.0
 11
137.0961928263
 21
31.5403823669
 31
0.0
  0
LINE
  5
194
330
1B
100
AcDbEntity
 67
     1
  8
0
  6
Continuous
 62
     7
370
    25
100
AcDbLine
 10
289.4961928263
 20
-31.9596176331
 30
0.0
 11
289.4961928263
 21
95.0403823669
 31
0.0
  0
LINE
  5
195
330
1B
100
AcDbEntity
 67
     1
  8
0
  6
Continuous
 62
     7
370
    25
100
AcDbLine
 10
137.0961928263
 20
123.6153823669
 30
0.0
 11
137.0961928263
 21
31.5403823669
 31
0.0
  0
LINE
  5
196
330
1B
100
AcDbEntity
 67
     1
  8
0
  6
Continuous
 62
     7
370
    25
100
AcDbLine
 10
162.4961928263
 20
-31.9596176331
 30
0.0
 11
162.4961928263
 21
95.0403823669
 31
0.0
  0
LINE
  5
197
330
1B
100
AcDbEntity
 67
     1
  8
0
  6
Continuous
 62
     7
370
    25
100
AcDbLine
 10
225.9961928263
 20
123.6153823669
 30
0.0
 11
225.9961928263
 21
120.4403823669
 31
0.0
  0
LINE
  5
198
330
1B
100
AcDbEntity
 67
     1
  8
0
  6
Continuous
 62
     7
370
    25
100
AcDbLine
 10
225.9961928263
 20
120.4403823669
 30
0.0
 11
318.0711928263
 21
120.4403823669
 31
0.0
  0
LINE
  5
199
330
1B
100
AcDbEntity
 67
     1
  8
0
  6
Continuous
 62
     7
370
    25
100
AcDbLine
 10
318.0711928263
 20
120.4403823669
 30
0.0
 11
318.0711928263
 21
31.5403823669
 31
0.0
  0
LINE
  5
19A
330
1B
100
AcDbEntity
 67
     1
  8
0
  6
Continuous
 62
     7
370
    25
100
AcDbLine
 10
318.0711928263
 20
31.5403823669
 30
0.0
 11
314.8961928263
 21
31.5403823669
 31
0.0
  0
LINE
  5
19B
330
1B
100
AcDbEntity
 67
     1
  8
0
  6
Continuous
 62
     7
370
    25
100
AcDbLine
 10
314.8961928263
 20
31.5403823669
 30
0.0
 11
314.8961928263
 21
-60.5346176331
 31
0.0
  0
LINE
  5
19C
330
1B
100
AcDbEntity
 67
     1
  8
0
  6
Continuous
 62
     7
370
    25
100
AcDbLine
 10
137.0961928263
 20
123.6153823669
 30
0.0
 11
225.9961928263
 21
123.6153823669
 31
0.0
  0
LINE
  5
19D
330
1B
100
AcDbEntity
 67
     1
  8
0
  6
Continuous
 62
     7
370
    25
100
AcDbLine
 10
-146.9386301713
 20
125.5229693924
 30
0.0
 11
-54.8636301713
 21
125.5229693924
 31
0.0
  0
LINE
  5
19E
330
1B
100
AcDbEntity
 67
     1
  8
0
  6
Continuous
 62
     7
370
    25
100
AcDbLine
 10
-54.8636301713
 20
125.5229693924
 30
0.0
 11
-54.8636301713
 21
36.6229693924
 31
0.0
  0
LINE
  5
19F
330
1B
100
AcDbEntity
 67
     1
  8
0
  6
Continuous
 62
     7
370
    25
100
AcDbLine
 10
-54.8636301713
 20
36.6229693924
 30
0.0
 11
-58.0386301713
 21
36.6229693924
 31
0.0
  0
LINE
  5
1A0
330
1B
100
AcDbEntity
 67
     1
  8
0
  6
Continuous
 62
     7
370
    25
100
AcDbLine
 10
-58.0386301713
 20
36.6229693924
 30
0.0
 11
-58.0386301713
 21
-55.4520306076
 31
0.0
  0
LINE
  5
1A1
330
1B
100
AcDbEntity
 67
     1
  8
0
  6
Continuous
 62
     7
370
    25
100
AcDbLine
 10
-58.0386301713
 20
-55.4520306076
 30
0.0
 11
-146.9386301713
 21
-55.4520306076
 31
0.0
  0
LINE
  5
1A2
330
1B
100
AcDbEntity
 67
     1
  8
0
  6
Continuous
 62
     7
370
    25
100
AcDbLine
 10
-146.9386301713
 20
-55.4520306076
 30
0.0
 11
-146.9386301713
 21
-52.2770306076
 31
0.0
  0
LINE
  5
1A3
330
1B
100
AcDbEntity
 67
     1
  8
0
  6
Continuous
 62
     7
370
    25
100
AcDbLine
 10
-146.9386301713
 20
-52.2770306076
 30
0.0
 11
-239.0136301713
 21
-52.2770306076
 31
0.0
  0
LINE
  5
1A4
330
1B
100
AcDbEntity
 67
     1
  8
0
  6
Continuous
 62
     7
370
    25
100
AcDbLine
 10
-239.0136301713
 20
-52.2770306076
 30
0.0
 11
-239.0136301713
 21
36.6229693924
 31
0.0
  0
LINE
  5
1A5
330
1B
100
AcDbEntity
 67
     1
  8
0
  6
Continuous
 62
     7
370
    25
100
AcDbLine
 10
-239.0136301713
 20
36.6229693924
 30
0.0
 11
-235.8386301713
 21
36.6229693924
 31
0.0
  0
LINE
  5
1A6
330
1B
100
AcDbEntity
 67
     1
  8
0
  6
Continuous
 62
     7
370
    25
100
AcDbLine
 10
-235.8386301713
 20
128.6979693924
 30
0.0
 11
-235.8386301713
 21
36.6229693924
 31
0.0
  0
LINE
  5
1A7
330
1B
100
AcDbEntity
 67
     1
  8
0
  6
Continuous
 62
     7
370
    25
100
AcDbLine
 10
-235.8386301713
 20
128.6979693924
 30
0.0
 11
-146.9386301713
 21
128.6979693924
 31
0.0
  0
LINE
  5
1A8
330
1B
100
AcDbEntity
 67
     1
  8
0
  6
Continuous
 62
     7
370
    25
100
AcDbLine
 10
-146.9386301713
 20
128.6979693924
 30
0.0
 11
-146.9386301713
 21
125.5229693924
 31
0.0
  0
LINE
  5
1A9
330
1B
100
AcDbEntity
 67
     1
  8
0
  6
Continuous
 62
     7
370
    25
100
AcDbLine
 10
-49.0535569835
 20
126.1566758796
 30
0.0
 11
-49.0535569835
 21
34.0816758796
 31
0.0
  0
LINE
  5
1AA
330
1B
100
AcDbEntity
 67
     1
  8
0
  6
Continuous
 62
     7
370
    25
100
AcDbLine
 10
131.9214430165
 20
34.0816758796
 30
0.0
 11
128.7464430165
 21
34.0816758796
 31
0.0
  0
LINE
  5
1AB
330
1B
100
AcDbEntity
 67
     1
  8
0
  6
Continuous
 62
     7
370
    25
100
AcDbLine
 10
128.7464430165
 20
34.0816758796
 30
0.0
 11
128.7464430165
 21
-57.9933241204
 31
0.0
  0
LINE
  5
1AC
330
1B
100
AcDbEntity
 67
     1
  8
0
  6
Continuous
 62
     7
370
    25
100
AcDbLine
 10
39.8464430165
 20
126.1566758796
 30
0.0
 11
39.8464430165
 21
122.9816758796
 31
0.0
  0
LINE
  5
1AD
330
1B
100
AcDbEntity
 67
     1
  8
0
  6
Continuous
 62
     7
370
    25
100
AcDbLine
 10
39.8464430165
 20
-57.9933241204
 30
0.0
 11
39.8464430165
 21
-54.8183241204
 31
0.0
  0
LINE
  5
1AE
330
1B
100
AcDbEntity
 67
     1
  8
0
  6
Continuous
 62
     7
370
    25
100
AcDbLine
 10
131.9214430165
 20
122.9816758796
 30
0.0
 11
131.9214430165
 21
34.0816758796
 31
0.0
  0
LINE
  5
1AF
330
1B
100
AcDbEntity
 67
     1
  8
0
  6
Continuous
 62
     7
370
    25
100
AcDbLine
 10
-52.2285569835
 20
-54.8183241204
 30
0.0
 11
-52.2285569835
 21
34.0816758796
 31
0.0
  0
LINE
  5
1B0
330
1B
100
AcDbEntity
 67
     1
  8
0
  6
Continuous
 62
     7
370
    25
100
AcDbLine
 10
-52.2285569835
 20
34.0816758796
 30
0.0
 11
-49.0535569835
 21
34.0816758796
 31
0.0
  0
LINE
  5
1B1
330
1B
100
AcDbEntity
 67
     1
  8
0
  6
Continuous
 62
     7
370
    25
100
AcDbLine
 10
-49.0535569835
 20
126.1566758796
 30
0.0
 11
39.8464430165
 21
126.1566758796
 31
0.0
  0
LINE
  5
1B2
330
1B
100
AcDbEntity
 67
     1
  8
0
  6
Continuous
 62
     7
370
    25
100
AcDbLine
 10
39.8464430165
 20
122.9816758796
 30
0.0
 11
131.9214430165
 21
122.9816758796
 31
0.0
  0
LINE
  5
1B3
330
1B
100
AcDbEntity
 67
     1
  8
0
  6
Continuous
 62
     7
370
    25
100
AcDbLine
 10
39.8464430165
 20
-54.8183241204
 30
0.0
 11
-52.2285569835
 21
-54.8183241204
 31
0.0
  0
LINE
  5
1B4
330
1B
100
AcDbEntity
 67
     1
  8
0
  6
Continuous
 62
     7
370
    25
100
AcDbLine
 10
128.7464430165
 20
-57.9933241204
 30
0.0
 11
39.8464430165
 21
-57.9933241204
 31
0.0
  0
VIEWPORT
  5
256
330
1B
100
AcDbEntity
 67
     1
  8
0
100
AcDbViewport
 10
0.0
 20
0.0
 30
0.0
 40
205.6
 41
156.0
 68
     1
 69
     1
 12
38.2581345711
 22
-59.3557600976
 13
0.0
 23
0.0
 14
10.0
 24
10.0
 15
10.0
 25
10.0
 16
0.0
 26
0.0
 36
1.0
 17
0.0
 27
0.0
 37
0.0
 42
50.0
 43
0.0
 44
0.0
 45
433.1114185755
 50
0.0
 51
0.0
 72
   100
 90
   557152
  1

281
     0
 71
     1
 74
     0
110
0.0
120
0.0
130
0.0
111
1.0
121
0.0
131
0.0
112
0.0
122
1.0
132
0.0
 79
     0
146
0.0
  0
MTEXT
  5
25B
330
1B
100
AcDbEntity
 67
     1
  8
0
  6
Continuous
 62
     7
100
AcDbMText
 10
-241.5549236841
 20
-248.4290559793
 30
0.0
 40
4.83362
 41
0.0
 71
     1
 72
     1
  1
SOLIDWORKS Educational Product.
  7
SLDTEXTSTYLE0
 73
     1
 44
1.0
  0
MTEXT
  5
25C
330
1B
100
AcDbEntity
 67
     1
  8
0
  6
Continuous
 62
     7
100
AcDbMText
 10
-241.5549236841
 20
-255.6794859793
 30
0.0
 40
4.83362
 41
0.0
 71
     1
 72
     1
  1
For Instructional Use Only.
  7
SLDTEXTSTYLE0
 73
     1
 44
1.0
  0
ENDSEC
  0
SECTION
  2
OBJECTS
  0
DICTIONARY
  5
C
330
0
100
AcDbDictionary
281
     1
  3
ACAD_GROUP
350
D
  3
ACAD_LAYOUT
350
1A
  3
ACAD_MLINESTYLE
350
17
  3
ACAD_PLOTSETTINGS
350
19
  3
ACAD_PLOTSTYLENAME
350
E
  3
ACAD_SCALELIST
350
47
  0
DICTIONARY
  5
D
102
{ACAD_REACTORS
330
C
102
}
330
C
100
AcDbDictionary
281
     1
  0
DICTIONARY
  5
1A
102
{ACAD_REACTORS
330
C
102
}
330
C
100
AcDbDictionary
281
     1
  3
_Bottom
350
26
  3
_Top
350
1E
  3
Model
350
22
  0
DICTIONARY
  5
17
102
{ACAD_REACTORS
330
C
102
}
330
C
100
AcDbDictionary
281
     1
  3
Standard
350
18
  0
DICTIONARY
  5
19
102
{ACAD_REACTORS
330
C
102
}
330
C
100
AcDbDictionary
281
     1
  0
ACDBDICTIONARYWDFLT
  5
E
102
{ACAD_REACTORS
330
C
102
}
330
C
100
AcDbDictionary
281
     1
  3
Normal
350
F
100
AcDbDictionaryWithDefault
340
F
  0
DICTIONARY
  5
47
102
{ACAD_REACTORS
330
C
102
}
330
C
100
AcDbDictionary
281
     1
  3
A0
350
48
  3
A1
350
49
  3
A2
350
4A
  3
A3
350
4B
  3
A4
350
4C
  3
A5
350
4D
  3
A6
350
4E
  3
A7
350
4F
  3
A8
350
50
  3
A9
350
51
  3
B0
350
52
  3
B1
350
53
  3
B2
350
54
  3
B3
350
55
  3
B4
350
56
  3
B5
350
57
  3
B6
350
58
  3
B7
350
59
  3
B8
350
5A
  3
B9
350
5B
  3
C0
350
5C
  3
C1
350
5D
  3
C2
350
5E
  3
C3
350
5F
  3
C4
350
60
  3
C5
350
61
  3
C6
350
62
  3
C7
350
63
  3
C8
350
64
  3
C9
350
65
  3
D0
350
66
  3
D1
350
67
  3
D2
350
68
  0
LAYOUT
  5
26
102
{ACAD_REACTORS
330
1A
102
}
330
1A
100
AcDbPlotSettings
  1

  2
none_device
  4
ISO_A4_(210.00_x_297.00_MM)
  6

 40
7.5
 41
20.0
 42
7.5
 43
20.0
 44
210.0
 45
297.0
 46
0.0
 47
0.0
 48
0.0
 49
0.0
140
0.0
141
0.0
142
1.0
143
2.1775335273
 70
   688
 72
     1
 73
     1
 74
     1
  7

 75
     0
147
0.4592351794
148
241.5549236841
149
247.4094895876
100
AcDbLayout
  1
_Bottom
 70
     1
 71
     2
 10
0.0
 20
0.0
 11
0.0
 21
0.0
 12
0.0
 22
0.0
 32
0.0
 14
0.0
 24
0.0
 34
0.0
 15
0.0
 25
0.0
 35
0.0
146
0.0
 13
0.0
 23
0.0
 33
0.0
 16
1.0
 26
0.0
 36
0.0
 17
0.0
 27
1.0
 37
0.0
 76
     0
330
23
331
258
  0
LAYOUT
  5
1E
102
{ACAD_REACTORS
330
1A
102
}
330
1A
100
AcDbPlotSettings
  1

  2
none_device
  4
ISO_A4_(210.00_x_297.00_MM)
  6

 40
7.5
 41
20.0
 42
7.5
 43
20.0
 44
210.0
 45
297.0
 46
0.0
 47
0.0
 48
0.0
 49
0.0
140
0.0
141
0.0
142
1.0
143
2.1775335273
 70
   688
 72
     1
 73
     1
 74
     1
  7

 75
     0
147
0.4592351794
148
241.5549236841
149
247.4094895876
100
AcDbLayout
  1
_Top
 70
     1
 71
     1
 10
-285.1055942297
 20
-263.7409910422
 11
361.6218633718
 21
193.5410496861
 12
0.0
 22
0.0
 32
0.0
 14
-241.5549236841
 24
-247.4094895876
 34
0.0
 15
318.0711928263
 25
128.6979693924
 35
0.0
146
0.0
 13
0.0
 23
0.0
 33
0.0
 16
1.0
 26
0.0
 36
0.0
 17
0.0
 27
1.0
 37
0.0
 76
     0
330
1B
331
256
  0
LAYOUT
  5
22
102
{ACAD_REACTORS
330
1A
102
}
330
1A
100
AcDbPlotSettings
  1

  2
none_device
  4
ANSI_A_(11.00_x_8.50_Inches)
  6

 40
6.35
 41
19.05
 42
6.35000508
 43
19.05000254
 44
279.4
 45
215.9
 46
114.4401766726
 47
118.2377277837
 48
0.0
 49
0.0
140
0.0
141
0.0
142
0.0194594206
143
1.0
 70
  1696
 72
     0
 73
     0
 74
     0
  7

 75
     0
147
0.0179189148
148
-1300.4909072572
149
0.0
100
AcDbLayout
  1
Model
 70
     1
 71
     0
 10
0.0
 20
0.0
 11
420.0
 21
297.0
 12
0.0
 22
0.0
 32
0.0
 14
-241.5549236841
 24
-247.4094895876
 34
0.0
 15
318.0711928263
 25
128.6979693924
 35
0.0
146
0.0
 13
0.0
 23
0.0
 33
0.0
 16
1.0
 26
0.0
 36
0.0
 17
0.0
 27
1.0
 37
0.0
 76
     0
330
1F
331
29
  0
MLINESTYLE
  5
18
102
{ACAD_REACTORS
330
17
102
}
330
17
100
AcDbMlineStyle
  2
Standard
 70
     0
  3

 62
   256
 51
90.0
 52
90.0
 71
     2
 49
0.5
 62
   256
  6
BYLAYER
 49
-0.5
 62
   256
  6
BYLAYER
  0
ACDBPLACEHOLDER
  5
F
102
{ACAD_REACTORS
330
E
102
}
330
E
  0
SCALE
  5
48
102
{ACAD_REACTORS
330
47
102
}
330
47
100
AcDbScale
 70
     0
300
1:1
140
1.0
141
1.0
290
     1
  0
SCALE
  5
49
102
{ACAD_REACTORS
330
47
102
}
330
47
100
AcDbScale
 70
     0
300
1:2
140
1.0
141
2.0
290
     0
  0
SCALE
  5
4A
102
{ACAD_REACTORS
330
47
102
}
330
47
100
AcDbScale
 70
     0
300
1:4
140
1.0
141
4.0
290
     0
  0
SCALE
  5
4B
102
{ACAD_REACTORS
330
47
102
}
330
47
100
AcDbScale
 70
     0
300
1:5
140
1.0
141
5.0
290
     0
  0
SCALE
  5
4C
102
{ACAD_REACTORS
330
47
102
}
330
47
100
AcDbScale
 70
     0
300
1:8
140
1.0
141
8.0
290
     0
  0
SCALE
  5
4D
102
{ACAD_REACTORS
330
47
102
}
330
47
100
AcDbScale
 70
     0
300
1:10
140
1.0
141
10.0
290
     0
  0
SCALE
  5
4E
102
{ACAD_REACTORS
330
47
102
}
330
47
100
AcDbScale
 70
     0
300
1:16
140
1.0
141
16.0
290
     0
  0
SCALE
  5
4F
102
{ACAD_REACTORS
330
47
102
}
330
47
100
AcDbScale
 70
     0
300
1:20
140
1.0
141
20.0
290
     0
  0
SCALE
  5
50
102
{ACAD_REACTORS
330
47
102
}
330
47
100
AcDbScale
 70
     0
300
1:30
140
1.0
141
30.0
290
     0
  0
SCALE
  5
51
102
{ACAD_REACTORS
330
47
102
}
330
47
100
AcDbScale
 70
     0
300
1:40
140
1.0
141
40.0
290
     0
  0
SCALE
  5
52
102
{ACAD_REACTORS
330
47
102
}
330
47
100
AcDbScale
 70
     0
300
1:50
140
1.0
141
50.0
290
     0
  0
SCALE
  5
53
102
{ACAD_REACTORS
330
47
102
}
330
47
100
AcDbScale
 70
     0
300
1:100
140
1.0
141
100.0
290
     0
  0
SCALE
  5
54
102
{ACAD_REACTORS
330
47
102
}
330
47
100
AcDbScale
 70
     0
300
2:1
140
2.0
141
1.0
290
     0
  0
SCALE
  5
55
102
{ACAD_REACTORS
330
47
102
}
330
47
100
AcDbScale
 70
     0
300
4:1
140
4.0
141
1.0
290
     0
  0
SCALE
  5
56
102
{ACAD_REACTORS
330
47
102
}
330
47
100
AcDbScale
 70
     0
300
8:1
140
8.0
141
1.0
290
     0
  0
SCALE
  5
57
102
{ACAD_REACTORS
330
47
102
}
330
47
100
AcDbScale
 70
     0
300
10:1
140
10.0
141
1.0
290
     0
  0
SCALE
  5
58
102
{ACAD_REACTORS
330
47
102
}
330
47
100
AcDbScale
 70
     0
300
100:1
140
100.0
141
1.0
290
     0
  0
SCALE
  5
59
102
{ACAD_REACTORS
330
47
102
}
330
47
100
AcDbScale
 70
     0
300
1/128" = 1'-0"
140
0.0078125
141
12.0
290
     0
  0
SCALE
  5
5A
102
{ACAD_REACTORS
330
47
102
}
330
47
100
AcDbScale
 70
     0
300
1/64" = 1'-0"
140
0.015625
141
12.0
290
     0
  0
SCALE
  5
5B
102
{ACAD_REACTORS
330
47
102
}
330
47
100
AcDbScale
 70
     0
300
1/32" = 1'-0"
140
0.03125
141
12.0
290
     0
  0
SCALE
  5
5C
102
{ACAD_REACTORS
330
47
102
}
330
47
100
AcDbScale
 70
     0
300
1/16" = 1'-0"
140
0.0625
141
12.0
290
     0
  0
SCALE
  5
5D
102
{ACAD_REACTORS
330
47
102
}
330
47
100
AcDbScale
 70
     0
300
3/32" = 1'-0"
140
0.09375
141
12.0
290
     0
  0
SCALE
  5
5E
102
{ACAD_REACTORS
330
47
102
}
330
47
100
AcDbScale
 70
     0
300
1/8" = 1'-0"
140
0.125
141
12.0
290
     0
  0
SCALE
  5
5F
102
{ACAD_REACTORS
330
47
102
}
330
47
100
AcDbScale
 70
     0
300
3/16" = 1'-0"
140
0.1875
141
12.0
290
     0
  0
SCALE
  5
60
102
{ACAD_REACTORS
330
47
102
}
330
47
100
AcDbScale
 70
     0
300
1/4" = 1'-0"
140
0.25
141
12.0
290
     0
  0
SCALE
  5
61
102
{ACAD_REACTORS
330
47
102
}
330
47
100
AcDbScale
 70
     0
300
3/8" = 1'-0"
140
0.375
141
12.0
290
     0
  0
SCALE
  5
62
102
{ACAD_REACTORS
330
47
102
}
330
47
100
AcDbScale
 70
     0
300
1/2" = 1'-0"
140
0.5
141
12.0
290
     0
  0
SCALE
  5
63
102
{ACAD_REACTORS
330
47
102
}
330
47
100
AcDbScale
 70
     0
300
3/4" = 1'-0"
140
0.75
141
12.0
290
     0
  0
SCALE
  5
64
102
{ACAD_REACTORS
330
47
102
}
330
47
100
AcDbScale
 70
     0
300
1" = 1'-0"
140
1.0
141
12.0
290
     0
  0
SCALE
  5
65
102
{ACAD_REACTORS
330
47
102
}
330
47
100
AcDbScale
 70
     0
300
1-1/2" = 1'-0"
140
1.5
141
12.0
290
     0
  0
SCALE
  5
66
102
{ACAD_REACTORS
330
47
102
}
330
47
100
AcDbScale
 70
     0
300
3" = 1'-0"
140
3.0
141
12.0
290
     0
  0
SCALE
  5
67
102
{ACAD_REACTORS
330
47
102
}
330
47
100
AcDbScale
 70
     0
300
6" = 1'-0"
140
6.0
141
12.0
290
     0
  0
SCALE
  5
68
102
{ACAD_REACTORS
330
47
102
}
330
47
100
AcDbScale
 70
     0
300
1'-0" = 1'-0"
140
12.0
141
12.0
290
     0
  0
ENDSEC
  0
EOF
